<svg width="34" height="44" viewBox="0 0 34 44" fill="none" xmlns="http://www.w3.org/2000/svg">
<path opacity="0.1" fill-rule="evenodd" clip-rule="evenodd" d="M17 44C22.5228 44 27 42.6569 27 41C27 39.3431 22.5228 38 17 38C11.4772 38 7 39.3431 7 41C7 42.6569 11.4772 44 17 44Z" fill="#212529"/>
<path d="M17 41L16.7 41.4L17 41.625L17.3 41.4L17 41ZM17 41C17.3 41.4 17.3002 41.3999 17.3004 41.3997L17.3011 41.3992L17.3037 41.3972L17.3131 41.3901L17.349 41.3629C17.3803 41.339 17.4263 41.3038 17.486 41.2575C17.6054 41.165 17.7795 41.0284 18.0007 40.8507C18.443 40.4953 19.0734 39.9752 19.8293 39.3138C21.3403 37.9916 23.3562 36.1019 25.3737 33.8322C29.3852 29.3192 33.5 23.1975 33.5 17C33.5 7.8873 26.1127 0.5 17 0.5C7.8873 0.5 0.5 7.8873 0.5 17C0.5 23.1975 4.61476 29.3192 8.6263 33.8322C10.6438 36.1019 12.6597 37.9916 14.1707 39.3138C14.9266 39.9752 15.557 40.4953 15.9993 40.8507C16.2205 41.0284 16.3946 41.165 16.514 41.2575C16.5737 41.3038 16.6197 41.339 16.651 41.3629L16.6869 41.3901L16.6963 41.3972L16.6989 41.3992L16.6996 41.3997C16.6998 41.3999 16.7 41.4 17 41Z" fill="#FFB833" stroke="white"/>
<path d="M11 11.0001C11 10.8233 11.0702 10.6537 11.1953 10.5287C11.3416 10.3823 11.605 10.2067 12.0024 10.0478C12.6043 9.80701 13.3757 9.66675 14.3333 9.66675C15.1666 9.66675 15.7661 9.81001 16.8064 10.208L17.4482 10.4607C18.4839 10.8678 18.9869 11.0001 19.6667 11.0001C20.4591 11.0001 21.0626 10.8903 21.5024 10.7144C21.73 10.6234 21.8416 10.549 21.8619 10.5287L21.9183 10.4779C22.343 10.1351 23 10.432 23 11.0001V19.0001C23 19.1769 22.9298 19.3465 22.8047 19.4715C22.6584 19.6179 22.395 19.7934 21.9976 19.9524C21.3957 20.1931 20.6243 20.3334 19.6667 20.3334C18.8334 20.3334 18.2339 20.1902 17.1936 19.7921L16.5518 19.5395C15.5161 19.1324 15.0131 19.0001 14.3333 19.0001C13.5409 19.0001 12.9374 19.1098 12.4976 19.2857C12.4337 19.3113 12.3789 19.3356 12.3327 19.3577L12.3333 23.6667C12.3333 24.0349 12.0349 24.3334 11.6667 24.3334C11.2985 24.3334 11 24.0349 11 23.6667V11.0001Z" fill="white"/>
</svg>
