<?xml version="1.0" encoding="UTF-8"?>
<svg width="206px" height="44px" viewBox="0 0 206 44" version="1.1" xmlns="http://www.w3.org/2000/svg" xmlns:xlink="http://www.w3.org/1999/xlink">
    <!-- Generator: Sketch 46 (44423) - http://www.bohemiancoding.com/sketch -->
    <title>atom/logo</title>
    <desc>Created with Sketch.</desc>
    <defs>
        <polygon id="path-1" points="0 43.9714286 204.263587 43.9714286 204.263587 0.473371429 0 0.473371429"></polygon>
    </defs>
    <g id="Symbols" stroke="none" stroke-width="1" fill="none" fill-rule="evenodd">
        <g id="organisms/header/default" transform="translate(-857.000000, -28.000000)">
            <g id="atom/logo" transform="translate(835.000000, 12.000000)">
                <g id="Page-1" transform="translate(22.826087, 15.742857)">
                    <polygon id="Fill-1" fill="#000000" points="24.1190217 7.81356 15.4141304 31.3366457 15.3233696 31.3366457 6.66413043 7.81356 0 7.81356 0 36.7462171 3.7625 36.7462171 3.7625 11.7552457 3.85326087 11.7552457 13.0119565 36.7462171 16.8195652 36.7462171 25.9782609 11.7552457 26.0684783 11.7552457 26.0684783 36.7462171 30.5570652 36.7462171 30.5570652 7.81356"></polygon>
                    <g id="Group-17" transform="translate(0.000000, 0.069703)">
                        <path d="M43.4453804,35.37686 C47.5258152,35.37686 48.0247283,30.3445743 48.0247283,26.6965743 C48.0247283,23.0491171 47.5258152,18.0168314 43.4453804,18.0168314 C39.4105978,18.0168314 38.9116848,23.0491171 38.9116848,26.6965743 C38.9116848,30.3445743 39.4105978,35.37686 43.4453804,35.37686 Z M33.9247283,26.6965743 C33.9247283,19.9461457 37.0986413,16.2558029 43.4453804,16.2558029 C49.7932065,16.2558029 53.0122283,19.9461457 53.0122283,26.6965743 C53.0122283,33.4480886 49.7932065,37.1378886 43.4453804,37.1378886 C37.0986413,37.1378886 33.9247283,33.4480886 33.9247283,26.6965743 Z" id="Fill-2" fill="#000000"></path>
                        <path d="M56.5604891,16.71696 L61.1403804,16.71696 L61.1403804,21.45556 L61.2305978,21.45556 C61.9566848,19.9882171 64.0414674,16.2555314 68.80125,16.2555314 C72.6104891,16.2555314 74.2425543,19.1918457 74.2425543,22.0847314 L74.2425543,36.6767314 L69.662663,36.6767314 L69.662663,24.1807029 C69.662663,21.6651029 69.2550543,19.4013886 66.9430978,19.4013886 C62.4094022,19.4013886 61.1403804,25.9417314 61.1403804,28.4160743 L61.1403804,36.6767314 L56.5604891,36.6767314 L56.5604891,16.71696 Z" id="Fill-4" fill="#000000"></path>
                        <path d="M90.6674457,36.8442571 C89.759837,37.0532571 88.5359239,37.1379429 87.4935326,37.1379429 C83.1864674,37.1379429 80.6924457,35.9219429 80.6924457,32.0644 L80.6924457,18.8974 L77.2478804,18.8974 L77.2478804,16.7167429 L80.6924457,16.7167429 L80.6924457,12.0210286 L85.2717935,9.46308571 L85.2717935,16.7167429 L91.1652717,16.7167429 L91.1652717,18.8974 L85.2717935,18.8974 L85.2717935,30.3864286 C85.2717935,33.3222 85.5891848,34.7472 88.5359239,34.7472 C89.2620109,34.7472 90.0321196,34.6630571 90.6674457,34.4122571 L90.6674457,36.8442571 Z" id="Fill-6" fill="#000000"></path>
                        <path d="M94.1130435,16.71696 L98.6918478,16.71696 L98.6918478,21.7910457 L98.7826087,21.7910457 C100.233696,19.10716 101.820109,16.54976 105.764674,16.2555314 L105.764674,20.6597314 C101.367391,20.7851314 98.6918478,22.1688743 98.6918478,27.5350171 L98.6918478,36.6767314 L94.1130435,36.6767314 L94.1130435,16.71696 Z" id="Fill-8" fill="#000000"></path>
                        <path d="M117.082174,7.76296571 L121.888696,7.76296571 L117.460978,13.2371371 L114.059891,13.2371371 L117.082174,7.76296571 Z M120.363152,22.5031657 C120.363152,20.9522229 119.772935,18.0169943 116.372935,18.0169943 C112.836522,18.0169943 112.15663,21.3718514 112.06587,22.5031657 L120.363152,22.5031657 Z M124.4425,36.0056514 C122.538152,36.71788 120.860978,37.1380514 118.141413,37.1380514 C112.15663,37.1380514 107.350652,33.8667943 107.350652,25.8162229 C107.350652,20.2812514 109.753913,16.2559657 116.55337,16.2559657 C123.537065,16.2559657 124.851196,20.57548 124.851196,24.4330229 L111.93,24.4330229 C111.93,28.3747086 113.833804,34.9145086 120.316413,34.9145086 C121.722935,34.9145086 123.082717,34.6631657 124.4425,34.0757943 L124.4425,36.0056514 Z" id="Fill-10" fill="#000000"></path>
                        <path d="M139.449674,27.3252029 C137.545326,27.4522314 132.376848,27.8289743 132.376848,31.5187743 C132.376848,33.3221457 133.510543,34.4958029 135.006196,34.4958029 C136.593152,34.4958029 139.449674,33.0708029 139.449674,29.6736029 L139.449674,27.3252029 Z M139.449674,33.9095171 L139.35837,33.9095171 C138.63337,35.0831743 136.729022,37.1378886 133.28337,37.1378886 C129.88337,37.1378886 127.390435,34.9143457 127.390435,32.1474029 C127.390435,25.9838029 136.593152,25.6901171 139.449674,25.5641743 L139.449674,23.8042314 C139.449674,21.6235743 139.449674,18.0168314 136.41163,18.0168314 C133.600761,18.0168314 133.101848,20.0297457 132.920326,22.3786886 L128.115435,22.3786886 C128.342609,19.40166 129.610543,16.2558029 136.41163,16.2558029 C143.439891,16.2558029 144.029022,19.9043457 144.029022,23.8042314 L144.029022,36.6770029 L139.449674,36.6770029 L139.449674,33.9095171 Z" id="Fill-12" fill="#000000"></path>
                        <mask id="mask-2" fill="white">
                            <use xlink:href="#path-1"></use>
                        </mask>
                        <g id="Clip-15"></g>
                        <polygon id="Fill-14" fill="#000000" mask="url(#mask-2)" points="148.768478 36.6765143 153.347826 36.6765143 153.347826 7.74385714 148.768478 7.74385714"></polygon>
                        <path d="M185.141141,40.2085057 C184.225924,39.2986771 183.686793,38.07942 183.685707,36.7765629 L183.685707,25.5578771 C183.686793,24.1708771 184.965054,23.4108771 185.835163,23.4097914 L197.108533,23.4097914 C199.43625,23.4065343 201.950924,25.2375914 201.954728,28.22222 C201.957989,30.8843914 199.804185,33.0536486 197.153098,33.0579914 C195.448207,33.0601629 194.304728,32.2681343 193.64875,31.6031343 C193.646576,31.6020486 193.218859,31.1769914 193.081902,31.03802 C193.173207,30.7861343 193.267772,30.4615057 193.267772,30.0109343 L193.267772,30.0098486 C193.267772,28.4035343 191.944402,27.0930771 190.315054,27.0876486 C189.531359,27.0843914 188.835163,27.3666771 188.293859,27.90302 C187.739511,28.4545629 187.406359,29.2465914 187.404185,30.0190771 C187.404185,30.7665914 187.746033,31.5749057 188.296033,32.12482 C188.832989,32.6627914 189.540054,32.94562 190.342228,32.9445343 C190.781902,32.9434486 191.149293,32.8196771 191.341141,32.75182 C191.442228,32.8500771 191.921033,33.3158486 191.921033,33.3158486 C192.269946,33.6442771 193.402554,34.8624486 193.406902,36.7847057 L193.406902,36.79122 C193.406902,39.7693343 190.897663,41.6199343 188.571033,41.6237343 C187.281359,41.6269914 186.060163,41.1237629 185.141141,40.2085057 L185.141141,40.2085057 Z M164.493315,31.7149629 C163.57375,30.79862 163.046576,29.5451629 163.044402,28.2765057 C163.041141,26.9850486 163.543315,25.76742 164.459076,24.8505343 C165.37212,23.9352771 166.589511,23.4119629 167.894402,23.4097914 L179.128098,23.4097914 C180.516141,23.4119629 181.299837,24.6703057 181.302011,25.5388771 L181.302011,36.8009914 C181.303641,38.0772486 180.768859,39.3361343 179.850924,40.2551914 C179.22212,40.8859914 178.122663,41.6389343 176.460163,41.64002 C173.793859,41.6432771 171.623207,39.49302 171.618859,36.8465914 L171.618859,36.8379057 C171.618859,35.1436486 172.411793,34.0025629 173.076467,33.3435343 C173.077554,33.3435343 173.503098,32.9146771 173.638967,32.7773343 C173.893859,32.8701629 174.217228,32.96462 174.668315,32.9657057 C176.279728,32.9657057 177.589511,31.6438486 177.596033,30.0163629 C177.59712,29.2335629 177.317228,28.5349057 176.778641,27.9931343 C176.228098,27.4399629 175.43625,27.10882 174.662337,27.1066486 C173.915054,27.1055629 173.105272,27.4437629 172.554185,27.99422 C172.018315,28.5316486 171.731359,29.23682 171.731359,30.0353629 L171.731359,30.0407914 C171.731359,30.4772486 171.857989,30.8474771 171.927011,31.03802 C171.825924,31.1400771 171.359076,31.6205057 171.359076,31.6205057 C171.032989,31.9679343 169.807989,33.0992486 167.886793,33.10142 C166.598207,33.1046771 165.394402,32.6117629 164.493315,31.7149629 L164.493315,31.7149629 Z M183.685707,7.62676286 C183.682446,6.35213429 184.185707,5.09433429 185.103098,4.17527714 C185.731359,3.54393429 186.835163,2.79153429 188.495489,2.78882 C189.776467,2.78827714 191.035707,3.30724857 191.943315,4.21490571 C192.840054,5.10899143 193.33462,6.30599143 193.335707,7.58387714 L193.335707,7.59147714 C193.335707,9.28953429 192.54712,10.4284486 191.880272,11.0853057 C191.879185,11.0869343 191.454728,11.5130771 191.316685,11.6515057 C191.066141,11.55922 190.739511,11.4636771 190.288424,11.4625914 C188.682446,11.4620486 187.369402,12.7871629 187.361793,14.4141057 C187.35962,15.1969057 187.641141,15.8961057 188.182446,16.4367914 C188.732989,16.9905057 189.52212,17.3227343 190.295489,17.3243629 L190.299837,17.3243629 C191.051467,17.3243629 191.854185,16.9823629 192.403641,16.4340771 C192.942228,15.8993629 193.223207,15.1936486 193.223207,14.3951057 L193.223207,14.3891343 C193.223207,13.9526771 193.099293,13.5824486 193.032989,13.3897343 C193.129728,13.2903914 193.598207,12.80942 193.598207,12.80942 C193.928098,12.4609057 195.146576,11.3317629 197.067772,11.3285057 C200.054728,11.3241629 201.908533,13.8294486 201.913424,16.1545057 C201.915598,17.44542 201.412337,18.6619629 200.497663,19.5799343 C199.585707,20.4941057 198.366141,21.0092771 197.060707,21.0109057 L185.831902,21.0109057 C184.443859,21.00982 183.686793,19.75962 183.685707,18.88942 L183.685707,7.62676286 Z M173.109076,11.09942 L173.106902,11.0977914 C172.759076,10.7704486 171.629728,9.55227714 171.626467,7.62947714 L171.626467,7.61807714 C171.626467,4.64267714 174.130272,2.79642 176.456359,2.79044857 C177.749837,2.78827714 178.965598,3.28987714 179.883533,4.20350571 C180.799837,5.11496286 181.299837,6.33476286 181.302011,7.63870571 L181.302011,18.8563057 C181.300924,20.2427629 180.068315,21.0109057 179.19875,21.0109057 L167.919946,21.0109057 C166.642772,21.0141629 165.38462,20.4957343 164.464511,19.5799343 C163.832989,18.9513057 163.079185,17.8525629 163.077011,16.1919629 C163.074837,14.9135343 163.594402,13.6584486 164.503641,12.7491629 C165.399837,11.8539914 166.594946,11.3589057 167.874293,11.3572771 C169.577554,11.3556486 170.72212,12.1476771 171.382446,12.8126771 C171.382446,12.8126771 171.809076,13.2371914 171.95038,13.3739914 C171.853641,13.6253343 171.759076,13.9499629 171.759076,14.4027057 C171.759076,16.00902 173.08462,17.3216486 174.712337,17.3292486 C175.497663,17.3325057 176.19712,17.0475057 176.742772,16.50682 C177.296576,15.95582 177.628098,15.1670486 177.628098,14.3951057 C177.629185,13.6459629 177.289511,12.8392771 176.739511,12.2893629 C176.199293,11.7519343 175.491141,11.4685629 174.688967,11.4691057 C174.249293,11.4701914 173.882989,11.5961343 173.686793,11.6634486 C173.58788,11.5657343 173.109076,11.09942 173.109076,11.09942 L173.109076,11.09942 Z M182.51288,3.85064857 C181.111793,1.76716286 178.818859,0.472991429 176.480272,0.472991429 C172.474293,0.472991429 169.333533,3.65196286 169.333533,7.71036286 C169.333533,8.10013429 169.416141,8.64570571 169.568315,9.32482 C169.199837,9.24664857 168.510707,9.11690571 167.941141,9.11690571 C163.879728,9.11690571 160.695489,12.2383343 160.695489,16.2239914 C160.695489,18.5696771 162.005272,20.8621629 164.11125,22.2643629 C161.985163,23.6844771 160.712337,25.8971629 160.712337,28.2243914 C160.712337,32.1622771 163.964511,35.3640486 167.96125,35.3640486 C168.449293,35.3640486 169.042772,35.2495057 169.556359,35.1371343 C169.414511,35.7891057 169.333533,36.3373914 169.333533,36.73422 C169.333533,40.79262 172.474293,43.9715914 176.480272,43.9715914 C178.855272,43.9715914 181.070489,42.7338771 182.458533,40.6623343 C183.794946,42.6448486 186.196033,43.9715914 188.497663,43.9715914 C192.489511,43.9715914 195.61288,40.79262 195.61288,36.73422 C195.61288,36.20602 195.498207,35.5697914 195.405815,35.1371343 C196.08625,35.28262 196.630815,35.3640486 197.018859,35.3640486 C201.014511,35.3640486 204.263967,32.1622771 204.263967,28.2243914 C204.263967,25.8759914 202.998207,23.5943629 200.954185,22.2203914 C202.998207,20.8475057 204.263967,18.5734771 204.263967,16.2191057 C204.263967,12.3018486 200.99875,9.11310571 196.985163,9.11310571 C196.482989,9.11310571 195.875924,9.24067714 195.401467,9.34382 C195.479728,8.97359143 195.61288,8.27167714 195.61288,7.71036286 C195.61288,3.65196286 192.489511,0.472991429 188.497663,0.472991429 C186.172663,0.472991429 183.905815,1.76607714 182.51288,3.85064857 L182.51288,3.85064857 Z" id="Fill-16" fill="#E00000" mask="url(#mask-2)"></path>
                    </g>
                </g>
            </g>
        </g>
    </g>
</svg>