<svg width="24" height="24" viewBox="0 0 24 24" fill="none" xmlns="http://www.w3.org/2000/svg">
<circle cx="12" cy="12" r="9" fill="#0099FF"/>
<path d="M12 3C7.04 3 3 7.04 3 12C3 16.96 7.04 21 12 21C16.96 21 21 16.96 21 12C21 7.04 16.96 3 12 3ZM12 19C8.14 19 5 15.86 5 12C5 8.14 8.14 5 12 5C15.86 5 19 8.14 19 12C19 15.86 15.86 19 12 19Z" fill="#00FFFF"/>
<circle cx="12" cy="12" r="6" fill="#0099FF"/>
<path d="M12 6C8.69333 6 6 8.69333 6 12C6 15.3067 8.69333 18 12 18C15.3067 18 18 15.3067 18 12C18 8.69333 15.3067 6 12 6ZM12 16.6667C9.42667 16.6667 7.33333 14.5733 7.33333 12C7.33333 9.42667 9.42667 7.33333 12 7.33333C14.5733 7.33333 16.6667 9.42667 16.6667 12C16.6667 14.5733 14.5733 16.6667 12 16.6667Z" fill="#00FFFF"/>
</svg>
