<svg width="24" height="25" viewBox="0 0 24 25" fill="none" xmlns="http://www.w3.org/2000/svg">
<path d="M22.0001 7.91821V16.9182C22.0001 17.6282 21.6201 18.2782 21.0001 18.6382V20.1682C21.0001 20.5782 20.6601 20.9182 20.2501 20.9182H19.7501C19.3401 20.9182 19.0001 20.5782 19.0001 20.1682V18.9182H12.0001V20.1682C12.0001 20.5782 11.6601 20.9182 11.2501 20.9182H10.7501C10.3401 20.9182 10.0001 20.5782 10.0001 20.1682V18.6382C9.39011 18.2782 9.00011 17.6282 9.00011 16.9182V7.91821C9.00011 4.91821 12.0001 4.91821 15.5001 4.91821C19.0001 4.91821 22.0001 4.91821 22.0001 7.91821ZM13.0001 15.9182C13.0001 15.3682 12.5501 14.9182 12.0001 14.9182C11.4501 14.9182 11.0001 15.3682 11.0001 15.9182C11.0001 16.4682 11.4501 16.9182 12.0001 16.9182C12.5501 16.9182 13.0001 16.4682 13.0001 15.9182ZM20.0001 15.9182C20.0001 15.3682 19.5501 14.9182 19.0001 14.9182C18.4501 14.9182 18.0001 15.3682 18.0001 15.9182C18.0001 16.4682 18.4501 16.9182 19.0001 16.9182C19.5501 16.9182 20.0001 16.4682 20.0001 15.9182ZM20.0001 7.91821H11.0001V11.9182H20.0001V7.91821ZM7.00011 10.4182C6.97011 9.03821 5.83011 7.91821 4.45011 7.96821C3.07011 7.99821 1.97011 9.13821 2.00011 10.5182C2.03011 11.6882 2.86011 12.6882 4.00011 12.9182V20.9182H5.00011V12.9182C6.18011 12.6782 7.00011 11.6282 7.00011 10.4182Z" fill="#009EE0"/>
</svg>
