<svg width="24" height="25" viewBox="0 0 24 25" fill="none" xmlns="http://www.w3.org/2000/svg">
<path d="M20 3.65002H7V2.65002H6C5.69938 2.68319 5.41216 2.79241 5.16546 2.96737C4.91876 3.14234 4.72071 3.37728 4.59 3.65002H2V5.65002H3.73C2 11.23 2 22.65 2 22.65H7V5.65002H20V3.65002ZM22 9.15002C21.9905 8.67926 21.8482 8.22075 21.5895 7.8273C21.3309 7.43385 20.9663 7.12144 20.5379 6.92605C20.1095 6.73065 19.6346 6.66022 19.168 6.72286C18.7013 6.78549 18.2618 6.97865 17.9001 7.28009C17.5383 7.58153 17.2691 7.97899 17.1233 8.42672C16.9776 8.87446 16.9612 9.35425 17.0761 9.81087C17.1911 10.2675 17.4326 10.6824 17.773 11.0077C18.1133 11.3331 18.5387 11.5558 19 11.65V22.65H20V11.65C20.5732 11.5331 21.0872 11.219 21.4527 10.7622C21.8181 10.3054 22.0118 9.73489 22 9.15002ZM15 12.15V16.65H14V22.65H12.5V17.65H11.5V22.65H10V16.65H9V12.15C9 11.7522 9.15804 11.3707 9.43934 11.0894C9.72064 10.8081 10.1022 10.65 10.5 10.65H13.5C13.8978 10.65 14.2794 10.8081 14.5607 11.0894C14.842 11.3707 15 11.7522 15 12.15ZM12 7.15002C11.7033 7.15002 11.4133 7.238 11.1666 7.40282C10.92 7.56764 10.7277 7.80191 10.6142 8.076C10.5006 8.35009 10.4709 8.65169 10.5288 8.94266C10.5867 9.23363 10.7296 9.50091 10.9393 9.71068C11.1491 9.92046 11.4164 10.0633 11.7074 10.1212C11.9983 10.1791 12.2999 10.1494 12.574 10.0358C12.8481 9.92231 13.0824 9.73005 13.2472 9.48338C13.412 9.23671 13.5 8.9467 13.5 8.65002C13.5 8.2522 13.342 7.87067 13.0607 7.58936C12.7794 7.30806 12.3978 7.15002 12 7.15002Z" fill="#E00000"/>
</svg>
