<svg width="24" height="25" viewBox="0 0 24 25" fill="none" xmlns="http://www.w3.org/2000/svg">
<g clip-path="url(#clip0)">
<path d="M20 3.58704H7V2.58704H6C5.69938 2.6202 5.41216 2.72942 5.16546 2.90439C4.91876 3.07935 4.72071 3.31429 4.59 3.58704H2V5.58704H3.73C2 11.167 2 22.587 2 22.587H7V5.58704H20V3.58704ZM22 9.08704C21.9905 8.61627 21.8482 8.15777 21.5895 7.76431C21.3309 7.37086 20.9663 7.05845 20.5379 6.86306C20.1095 6.66767 19.6346 6.59723 19.168 6.65987C18.7013 6.7225 18.2618 6.91566 17.9001 7.2171C17.5383 7.51854 17.2691 7.916 17.1233 8.36374C16.9776 8.81147 16.9612 9.29127 17.0761 9.74789C17.1911 10.2045 17.4326 10.6194 17.773 10.9448C18.1133 11.2701 18.5387 11.4928 19 11.587V22.587H20V11.587C20.5732 11.4702 21.0872 11.156 21.4527 10.6992C21.8181 10.2424 22.0118 9.6719 22 9.08704ZM15 12.087V16.587H14V22.587H12.5V17.587H11.5V22.587H10V16.587H9V12.087C9 11.6892 9.15804 11.3077 9.43934 11.0264C9.72064 10.7451 10.1022 10.587 10.5 10.587H13.5C13.8978 10.587 14.2794 10.7451 14.5607 11.0264C14.842 11.3077 15 11.6892 15 12.087ZM12 7.08704C11.7033 7.08704 11.4133 7.17501 11.1666 7.33983C10.92 7.50465 10.7277 7.73892 10.6142 8.01301C10.5006 8.2871 10.4709 8.5887 10.5288 8.87967C10.5867 9.17064 10.7296 9.43792 10.9393 9.6477C11.1491 9.85748 11.4164 10.0003 11.7074 10.0582C11.9983 10.1161 12.2999 10.0864 12.574 9.97286C12.8481 9.85932 13.0824 9.66706 13.2472 9.42039C13.412 9.17372 13.5 8.88371 13.5 8.58704C13.5 8.18921 13.342 7.80768 13.0607 7.52638C12.7794 7.24507 12.3978 7.08704 12 7.08704Z" fill="#009EE0"/>
</g>
<defs>
<clipPath id="clip0">
<rect width="24" height="24" fill="white" transform="translate(0 0.648193)"/>
</clipPath>
</defs>
</svg>
