<svg width="24" height="25" viewBox="0 0 24 25" fill="none" xmlns="http://www.w3.org/2000/svg">
<path d="M20 3.52405H7V2.52405H6C5.69938 2.55721 5.41216 2.66643 5.16546 2.8414C4.91876 3.01636 4.72071 3.2513 4.59 3.52405H2V5.52405H3.73C2 11.104 2 22.524 2 22.524H7V5.52405H20V3.52405ZM22 9.02405C21.9905 8.55328 21.8482 8.09478 21.5895 7.70132C21.3309 7.30787 20.9663 6.99546 20.5379 6.80007C20.1095 6.60468 19.6346 6.53425 19.168 6.59688C18.7013 6.65951 18.2618 6.85267 17.9001 7.15411C17.5383 7.45555 17.2691 7.85301 17.1233 8.30075C16.9776 8.74848 16.9612 9.22828 17.0761 9.6849C17.1911 10.1415 17.4326 10.5564 17.773 10.8818C18.1133 11.2071 18.5387 11.4298 19 11.524V22.524H20V11.524C20.5732 11.4072 21.0872 11.093 21.4527 10.6362C21.8181 10.1794 22.0118 9.60891 22 9.02405ZM15 12.024V16.524H14V22.524H12.5V17.524H11.5V22.524H10V16.524H9V12.024C9 11.6262 9.15804 11.2447 9.43934 10.9634C9.72064 10.6821 10.1022 10.524 10.5 10.524H13.5C13.8978 10.524 14.2794 10.6821 14.5607 10.9634C14.842 11.2447 15 11.6262 15 12.024ZM12 7.02405C11.7033 7.02405 11.4133 7.11202 11.1666 7.27684C10.92 7.44167 10.7277 7.67593 10.6142 7.95002C10.5006 8.22411 10.4709 8.52571 10.5288 8.81668C10.5867 9.10766 10.7296 9.37493 10.9393 9.58471C11.1491 9.79449 11.4164 9.93735 11.7074 9.99523C11.9983 10.0531 12.2999 10.0234 12.574 9.90987C12.8481 9.79634 13.0824 9.60408 13.2472 9.3574C13.412 9.11073 13.5 8.82072 13.5 8.52405C13.5 8.12622 13.342 7.74469 13.0607 7.46339C12.7794 7.18208 12.3978 7.02405 12 7.02405Z" fill="black"/>
</svg>
