<svg width="24" height="24" viewBox="0 0 24 24" fill="none" xmlns="http://www.w3.org/2000/svg">
<rect width="24" height="24" rx="2"/>
<path fill-rule="evenodd" clip-rule="evenodd" d="M16.8622 8.19526C17.1225 7.93491 17.5446 7.93491 17.805 8.19526C18.0653 8.45561 18.0653 8.87772 17.805 9.13807L12.5066 14.4365C12.2462 14.6968 11.8241 14.6968 11.5638 14.4365C11.3034 14.1761 11.3034 13.754 11.5638 13.4937L16.8622 8.19526ZM10.4714 15.5286C10.7318 15.7889 10.7318 16.2111 10.4714 16.4714C10.2111 16.7318 9.78895 16.7318 9.5286 16.4714L6.19526 13.1381C5.93491 12.8777 5.93491 12.4556 6.19526 12.1953C6.45561 11.9349 6.87772 11.9349 7.13807 12.1953L10.4714 15.5286Z" fill="white"/>
</svg>
