<svg width="24" height="25" viewBox="0 0 24 25" fill="none" xmlns="http://www.w3.org/2000/svg">
<path d="M8 17.9361C8 19.1261 7.11 20.0861 6 20.0861C4.89 20.0861 4 19.1261 4 17.9361C4 16.5061 6 14.0861 6 14.0861C6 14.0861 8 16.5061 8 17.9361ZM16.46 12.0861V10.6461L18.46 9.51606L20.79 10.1361L21.31 8.20606L19.54 7.73606L20 5.96606L18.07 5.44606L17.45 7.77606L15.45 8.90606L13 7.46606V5.20606L14.71 3.49606L13.29 2.08606L12 3.37606L10.71 2.08606L9.29 3.49606L11 5.20606V7.46606L8.5 8.90606L6.5 7.77606L5.92 5.44606L4 5.96606L4.47 7.73606L2.7 8.20606L3.22 10.1361L5.55 9.51606L7.55 10.6461V12.0861H2V13.0861H22V12.0861H16.46ZM9.5 12.0861V10.6461L12 9.19606L14.5 10.6461V12.0861H9.5ZM20 17.9361C20 19.1261 19.11 20.0861 18 20.0861C16.89 20.0861 16 19.1261 16 17.9361C16 16.5061 18 14.0861 18 14.0861C18 14.0861 20 16.5061 20 17.9361ZM14 20.9361C14 22.1261 13.11 23.0861 12 23.0861C10.89 23.0861 10 22.1261 10 20.9361C10 19.5061 12 17.0861 12 17.0861C12 17.0861 14 19.5061 14 20.9361Z" fill="black"/>
</svg>
