<svg width="24" height="24" viewBox="0 0 24 24" fill="none" xmlns="http://www.w3.org/2000/svg">
<rect width="24" height="24" rx="2" />
<path fill-rule="evenodd" clip-rule="evenodd" d="M10.716 4.66602C10.3291 4.66602 10.0234 4.99427 10.051 5.38018L10.6224 13.3802C10.6474 13.7291 10.9377 13.9993 11.2874 13.9993H12.7126C13.0623 13.9993 13.3526 13.7291 13.3776 13.3802L13.949 5.38018C13.9766 4.99427 13.6709 4.66602 13.284 4.66602H10.716ZM12 15.3333C10.8954 15.3333 10 16.2288 10 17.3333C10 18.4379 10.8954 19.3333 12 19.3333C13.1046 19.3333 14 18.4379 14 17.3333C14 16.2288 13.1046 15.3333 12 15.3333Z" fill="white"/>
</svg>
