<svg width="16" height="16" viewBox="0 0 16 16" fill="none" xmlns="http://www.w3.org/2000/svg">
<path fill-rule="evenodd" clip-rule="evenodd" d="M2.6665 2.66683C2.48969 2.66683 2.32012 2.73707 2.1951 2.86209C2.07008 2.98712 1.99984 3.15668 1.99984 3.3335V12.6668C1.99984 12.8436 2.07007 13.0132 2.1951 13.1382C2.32012 13.2633 2.48969 13.3335 2.6665 13.3335H13.3332C13.51 13.3335 13.6795 13.2633 13.8046 13.1382C13.9296 13.0132 13.9998 12.8436 13.9998 12.6668V8.66683C13.9998 8.29864 14.2983 8.00016 14.6665 8.00016C15.0347 8.00016 15.3332 8.29864 15.3332 8.66683V12.6668C15.3332 13.1973 15.1225 13.706 14.7474 14.081C14.3723 14.4561 13.8636 14.6668 13.3332 14.6668H2.6665C2.13607 14.6668 1.62736 14.4561 1.25229 14.081C0.877218 13.706 0.666504 13.1973 0.666504 12.6668V3.3335C0.666504 2.80306 0.877217 2.29436 1.25229 1.91928C1.62736 1.54421 2.13607 1.3335 2.6665 1.3335H5.99984C6.22274 1.3335 6.43089 1.4449 6.55454 1.63036L7.88787 3.63036C8.09211 3.93672 8.00932 4.35063 7.70297 4.55486C7.39662 4.7591 6.98271 4.67632 6.77847 4.36996L5.64305 2.66683H2.6665Z" fill="#097D6C"/>
<path fill-rule="evenodd" clip-rule="evenodd" d="M9.3335 2.00016C9.3335 1.63197 9.63197 1.3335 10.0002 1.3335H14.0002C14.3684 1.3335 14.6668 1.63197 14.6668 2.00016V6.00016C14.6668 6.36835 14.3684 6.66683 14.0002 6.66683C13.632 6.66683 13.3335 6.36835 13.3335 6.00016V2.66683H10.0002C9.63197 2.66683 9.3335 2.36835 9.3335 2.00016Z" fill="#097D6C"/>
<path fill-rule="evenodd" clip-rule="evenodd" d="M14.4714 1.52876C14.7318 1.78911 14.7318 2.21122 14.4714 2.47157L7.13807 9.8049C6.87772 10.0653 6.45561 10.0653 6.19526 9.8049C5.93491 9.54455 5.93491 9.12244 6.19526 8.86209L13.5286 1.52876C13.7889 1.26841 14.2111 1.26841 14.4714 1.52876Z" fill="#097D6C"/>
</svg>
