<svg width="17" height="21" viewBox="0 0 17 21" fill="none" xmlns="http://www.w3.org/2000/svg">
<path d="M1.5 13.688V12.688H0.5V10.688H1.5V9.68799H3.5V13.688H1.5ZM15.5 10.688V9.68799H13.5V13.688H15.5V12.688H16.5V10.688H15.5ZM14.5 4.68799H12.36C12 3.28799 10.9 2.18799 9.5 1.82799V0.687988H7.5V1.82799C6.1 2.18799 5 3.28799 4.64 4.68799H2.5V6.68799H14.5V4.68799ZM14.5 20.688H2.5C2.5 19.588 3.4 18.688 4.5 18.688V7.68799H12.5V18.688C13.61 18.688 14.5 19.588 14.5 20.688ZM6.5 11.688C6.5 12.798 7.4 13.688 8.5 13.688C9.6 13.688 10.5 12.798 10.5 11.688C10.5 10.578 9.61 9.68799 8.5 9.68799C7.39 9.68799 6.5 10.588 6.5 11.688Z" fill="#FF0000"/>
</svg>
