<svg width="12" height="16" viewBox="0 0 12 16" fill="none"
  xmlns="http://www.w3.org/2000/svg">
  <path d="M0 1.99996C0 1.82315 0.0702379 1.65358 0.195262 1.52855C0.341647 1.38217 0.60499 1.20661 1.00241 1.04764C1.60428 0.806891 2.37574 0.666626 3.33333 0.666626C4.16661 0.666626 4.76606 0.809888 5.80636 1.20791L6.44821 1.46057C7.48393 1.86769 7.98686 1.99996 8.66667 1.99996C9.45907 1.99996 10.0626 1.89022 10.5024 1.71431C10.73 1.62327 10.8416 1.54884 10.8619 1.52855L10.9183 1.47781C11.343 1.135 12 1.43185 12 1.99996V9.99996C12 10.1768 11.9298 10.3463 11.8047 10.4714C11.6584 10.6177 11.395 10.7933 10.9976 10.9523C10.3957 11.193 9.62426 11.3333 8.66667 11.3333C7.83339 11.3333 7.23394 11.19 6.19364 10.792L5.55179 10.5394C4.51607 10.1322 4.01314 9.99996 3.33333 9.99996C2.54093 9.99996 1.93738 10.1097 1.49759 10.2856C1.43367 10.3112 1.37888 10.3354 1.33271 10.3576L1.33333 14.6666C1.33333 15.0348 1.03486 15.3333 0.666667 15.3333C0.298477 15.3333 0 15.0348 0 14.6666V1.99996Z" fill="#ADB5BD"/>
</svg>
