<svg width="24" height="20" viewBox="0 0 24 20" fill="none" xmlns="http://www.w3.org/2000/svg">
<path d="M13.9993 20C13.7993 20 13.6993 20 13.5993 19.9L9.59925 17.9C9.19925 17.7 8.99925 17.4 8.99925 17V10.8L1.19925 1.6C0.999251 1.3 0.899251 0.9 1.09925 0.6C1.29925 0.2 1.59925 0 1.99925 0L21.9993 0C22.3993 0 22.6992 0.2 22.8993 0.6C23.0993 1 22.9993 1.4 22.7992 1.7L14.9993 10.8V19C14.9993 19.3 14.7993 19.7 14.4993 19.9C14.3993 20 14.1993 20 13.9993 20ZM10.9993 16.4L12.9993 17.4V10.5C12.9993 10.3 13.0993 10 13.1993 9.9L19.7992 2H4.19925L10.7993 9.8C10.9993 10 10.9993 10.2 10.9993 10.4V16.4Z" fill="#ADB5BD"/>
</svg>
