<svg width="24" height="25" viewBox="0 0 24 25" fill="none" xmlns="http://www.w3.org/2000/svg">
<path d="M2 22.6692V7.66919C2 7.40397 2.10536 7.14962 2.29289 6.96208C2.48043 6.77455 2.73478 6.66919 3 6.66919H7V2.66919H17V6.66919H21C21.2652 6.66919 21.5196 6.77455 21.7071 6.96208C21.8946 7.14962 22 7.40397 22 7.66919V22.6692H14V17.6692H10V22.6692H2ZM9 4.66919V10.6692H11V8.66919H13V10.6692H15V4.66919H13V6.66919H11V4.66919H9ZM4 20.6692H8V17.6692H4V20.6692ZM4 15.6692H8V12.6692H4V15.6692ZM16 20.6692H20V17.6692H16V20.6692ZM16 15.6692H20V12.6692H16V15.6692ZM10 15.6692H14V12.6692H10V15.6692Z" fill="black"/>
</svg>
