<svg width="16" height="14" viewBox="0 0 16 14" fill="none" xmlns="http://www.w3.org/2000/svg">
<path fill-rule="evenodd" clip-rule="evenodd" d="M5.64256 1.66665L6.77798 3.36978C6.90163 3.55525 7.10978 3.66665 7.33268 3.66665H13.3327C13.7009 3.66665 13.9993 3.96512 13.9993 4.33331V11C13.9993 11.3682 14.2978 11.6666 14.666 11.6666C15.0342 11.6666 15.3327 11.3682 15.3327 11V4.33331C15.3327 3.22874 14.4373 2.33331 13.3327 2.33331H7.68947L6.55405 0.63018C6.43041 0.444714 6.22225 0.333313 5.99935 0.333313H2.66602C1.56145 0.333313 0.666016 1.22874 0.666016 2.33331V11.6666C0.666016 12.7712 1.56145 13.6666 2.66602 13.6666H13.3327C13.7009 13.6666 13.9993 13.3682 13.9993 13C13.9993 12.6318 13.7009 12.3333 13.3327 12.3333H2.66602C2.29783 12.3333 1.99935 12.0348 1.99935 11.6666V2.33331C1.99935 1.96512 2.29783 1.66665 2.66602 1.66665H5.64256Z" fill="white"/>
</svg>
