<svg width="22" height="22" viewBox="0 0 22 22" fill="none" xmlns="http://www.w3.org/2000/svg">
<path fill-rule="evenodd" clip-rule="evenodd" d="M18.7642 5.99997L11.0002 9.88194L3.23629 5.99997L11.4474 1.8944C11.9414 1.64741 12.1416 1.04674 11.8946 0.552761C11.6477 0.0587828 11.047 -0.141442 10.553 0.105548L0.553005 5.10555C-0.184043 5.47407 -0.184043 6.52588 0.553005 6.8944L10.553 11.8944C10.8345 12.0352 11.1659 12.0352 11.4474 11.8944L21.4474 6.8944C22.1845 6.52588 22.1845 5.47407 21.4474 5.10555L15.4474 2.10555C14.9535 1.85856 14.3528 2.05878 14.1058 2.55276C13.8588 3.04674 14.059 3.64741 14.553 3.8944L18.7642 5.99997ZM11.0002 19.8819L1.44743 15.1055C0.953454 14.8586 0.352781 15.0588 0.105792 15.5528C-0.141197 16.0467 0.059027 16.6474 0.553005 16.8944L10.553 21.8944C10.8345 22.0352 11.1659 22.0352 11.4474 21.8944L21.4474 16.8944C21.9414 16.6474 22.1416 16.0467 21.8946 15.5528C21.6477 15.0588 21.047 14.8586 20.553 15.1055L11.0002 19.8819ZM0.105792 10.5528C0.352781 10.0588 0.953454 9.85856 1.44743 10.1055L11.0002 14.8819L20.553 10.1055C21.047 9.85856 21.6477 10.0588 21.8946 10.5528C22.1416 11.0467 21.9414 11.6474 21.4474 11.8944L11.4474 16.8944C11.1659 17.0352 10.8345 17.0352 10.553 16.8944L0.553005 11.8944C0.059027 11.6474 -0.141197 11.0467 0.105792 10.5528Z" fill="#637381"/>
</svg>
