<svg width="25" height="25" viewBox="0 0 25 25" fill="none" xmlns="http://www.w3.org/2000/svg">
<g clip-path="url(#clip0)">
<path d="M17.6599 18.3445L17.2333 18.7678L17.7233 19.2578C17.5799 19.3445 17.4366 19.4411 17.2999 19.5445L17.8999 20.3445C18.0766 20.2111 18.2599 20.0945 18.4533 19.9878L19.1966 20.7311C18.9499 20.8445 18.7133 20.9811 18.4999 21.1445L19.0999 21.9445C19.3599 21.7511 19.6533 21.6011 19.9666 21.5011L20.8166 22.3445C20.3999 22.3678 20.0133 22.5111 19.6999 22.7445L20.8999 24.3445L21.7199 23.2545L22.8133 24.3445L23.2333 23.9178L17.6599 18.3445ZM20.8999 18.3445C20.1833 18.3445 19.4999 18.4711 18.8666 18.7011L19.6633 19.5011C20.0666 19.3978 20.4733 19.3445 20.8999 19.3445C22.0266 19.3445 23.0666 19.7145 23.8999 20.3445L24.4999 19.5445C23.4966 18.7911 22.2533 18.3445 20.8999 18.3445ZM20.8999 20.3445C20.7733 20.3445 20.6499 20.3445 20.5266 20.3611L21.5899 21.4278C21.9966 21.5211 22.3766 21.7011 22.6999 21.9445L23.2999 21.1445C22.6333 20.6411 21.7999 20.3445 20.8999 20.3445Z" fill="black"/>
<path fill-rule="evenodd" clip-rule="evenodd" d="M11.0858 8.9772C11.4609 9.35227 11.9696 9.56299 12.5 9.56299C13.0304 9.56299 13.5391 9.35227 13.9142 8.9772C14.2893 8.60213 14.5 8.09342 14.5 7.56299C14.5 6.45299 13.61 5.56299 12.5 5.56299C11.4 5.56299 10.5 6.45299 10.5 7.56299C10.5 8.09342 10.7107 8.60213 11.0858 8.9772ZM11.0858 13.9772C11.4609 14.3523 11.9696 14.563 12.5 14.563C13.0304 14.563 13.5391 14.3523 13.9142 13.9772C14.2893 13.6021 14.5 13.0934 14.5 12.563C14.5 11.453 13.61 10.563 12.5 10.563C11.4 10.563 10.5 11.453 10.5 12.563C10.5 13.0934 10.7107 13.6021 11.0858 13.9772ZM11.0858 18.9772C11.4609 19.3523 11.9696 19.563 12.5 19.563C13.0304 19.563 13.5391 19.3523 13.9142 18.9772C14.2893 18.6021 14.5 18.0934 14.5 17.563C14.5 16.453 13.61 15.563 12.5 15.563C11.4 15.563 10.5 16.453 10.5 17.563C10.5 18.0934 10.7107 18.6021 11.0858 18.9772ZM17.5 10.563H20.5C20.5 12.423 19.22 13.973 17.5 14.423V15.563H20.5C20.5 15.626 20.4985 15.6887 20.4956 15.751C17.7362 15.7532 15.5 17.8649 15.5 20.4695C15.5 20.8459 15.5467 21.212 15.635 21.563H8.5C8.23478 21.563 7.98043 21.4576 7.79289 21.2701C7.60536 21.0826 7.5 20.8282 7.5 20.563V19.423C5.78 18.973 4.5 17.423 4.5 15.563H7.5V14.423C5.78 13.973 4.5 12.423 4.5 10.563H7.5V9.42299C5.78 8.97299 4.5 7.42299 4.5 5.56299H7.5V4.56299C7.5 4.29777 7.60536 4.04342 7.79289 3.85588C7.98043 3.66835 8.23478 3.56299 8.5 3.56299H16.5C16.7652 3.56299 17.0196 3.66835 17.2071 3.85588C17.3946 4.04342 17.5 4.29777 17.5 4.56299V5.56299H20.5C20.5 7.42299 19.22 8.97299 17.5 9.42299V10.563Z" fill="black"/>
</g>
<defs>
<clipPath id="clip0">
<rect width="24" height="24" fill="white" transform="translate(0.5 0.562988)"/>
</clipPath>
</defs>
</svg>
