<svg width="24" height="24" viewBox="0 0 24 24" fill="none" xmlns="http://www.w3.org/2000/svg">
<path fill-rule="evenodd" clip-rule="evenodd" d="M10.5858 8.41421C10.9609 8.78929 11.4696 9 12 9C12.5304 9 13.0391 8.78929 13.4142 8.41421C13.7893 8.03914 14 7.53043 14 7C14 5.89 13.11 5 12 5C10.9 5 10 5.89 10 7C10 7.53043 10.2107 8.03914 10.5858 8.41421ZM10.5858 13.4142C10.9609 13.7893 11.4696 14 12 14C12.5304 14 13.0391 13.7893 13.4142 13.4142C13.7893 13.0391 14 12.5304 14 12C14 10.89 13.11 10 12 10C10.9 10 10 10.89 10 12C10 12.5304 10.2107 13.0391 10.5858 13.4142ZM10.5858 18.4142C10.9609 18.7893 11.4696 19 12 19C12.5304 19 13.0391 18.7893 13.4142 18.4142C13.7893 18.0391 14 17.5304 14 17C14 15.89 13.11 15 12 15C10.9 15 10 15.89 10 17C10 17.5304 10.2107 18.0391 10.5858 18.4142ZM17 10H20C20 11.86 18.72 13.41 17 13.86V15H20C20 15.063 19.9985 15.1257 19.9956 15.188C17.2362 15.1902 15 17.3019 15 19.9065C15 20.2829 15.0467 20.649 15.135 21H8C7.73478 21 7.48043 20.8946 7.29289 20.7071C7.10536 20.5196 7 20.2652 7 20V18.86C5.28 18.41 4 16.86 4 15H7V13.86C5.28 13.41 4 11.86 4 10H7V8.86C5.28 8.41 4 6.86 4 5H7V4C7 3.73478 7.10536 3.48043 7.29289 3.29289C7.48043 3.10536 7.73478 3 8 3H16C16.2652 3 16.5196 3.10536 16.7071 3.29289C16.8946 3.48043 17 3.73478 17 4V5H20C20 6.86 18.72 8.41 17 8.86V10Z" fill="black"/>
<path d="M20.3666 24L21.5666 22.4C21.2333 22.15 20.8166 22 20.3666 22C19.9166 22 19.4999 22.15 19.1666 22.4L20.3666 24ZM20.3666 18C19.0166 18 17.7699 18.4467 16.7666 19.2L17.3666 20C18.1999 19.3733 19.2399 19 20.3666 19C21.4933 19 22.5333 19.3733 23.3666 20L23.9666 19.2C22.9633 18.4467 21.7166 18 20.3666 18ZM20.3666 20C19.4666 20 18.6366 20.2967 17.9666 20.8L18.5666 21.6C19.0666 21.2233 19.6899 21 20.3666 21C21.0433 21 21.6666 21.2233 22.1666 21.6L22.7666 20.8C22.0966 20.2967 21.2666 20 20.3666 20Z" fill="black"/>
</svg>
