<svg width="25" height="25" viewBox="0 0 25 25" fill="none" xmlns="http://www.w3.org/2000/svg">
<path fill-rule="evenodd" clip-rule="evenodd" d="M4.02448 3.45569L21.7677 21.3222L21.8219 21.2683L21.8242 21.2706L20.5508 22.5429L17.5 19.4894V20.438C17.5 20.7032 17.3946 20.9576 17.2071 21.1451C17.0196 21.3326 16.7652 21.438 16.5 21.438H8.5C8.23478 21.438 7.98043 21.3326 7.79289 21.1451C7.60536 20.9576 7.5 20.7032 7.5 20.438V19.298C5.78 18.848 4.5 17.298 4.5 15.438H7.5V14.298C5.78 13.848 4.5 12.298 4.5 10.438H7.5V9.48086L7.23985 9.22049C6.04161 8.8191 5.09115 7.87404 4.69718 6.67564L2.55066 4.52728L3.824 3.25504L4.02448 3.45569ZM7.50066 4.40159L10.5001 7.42183C10.5087 6.31937 11.4053 5.438 12.5 5.438C13.61 5.438 14.5 6.328 14.5 7.43799C14.5 7.96843 14.2893 8.47714 13.9142 8.85221C13.5397 9.22674 13.0319 9.43738 12.5023 9.43799L17.5 14.4704V14.298C19.22 13.848 20.5 12.298 20.5 10.438H17.5V9.29799C19.22 8.84799 20.5 7.298 20.5 5.438H17.5V4.438C17.5 4.17278 17.3946 3.91842 17.2071 3.73089C17.0196 3.54335 16.7652 3.438 16.5 3.438H8.5C8.23478 3.438 7.98043 3.54335 7.79289 3.73089C7.61396 3.90983 7.50983 4.14959 7.50066 4.40159ZM18.4609 15.438L20.1278 17.1165C20.3665 16.607 20.5 16.0387 20.5 15.438H18.4609ZM12.4523 14.4374L10.5005 12.484C10.5123 12.9977 10.7216 13.488 11.0858 13.8522C11.4496 14.216 11.9392 14.4252 12.4523 14.4374ZM12.5 19.438C11.9696 19.438 11.4609 19.2273 11.0858 18.8522C10.7107 18.4771 10.5 17.9684 10.5 17.438C10.5 16.328 11.4 15.438 12.5 15.438C13.61 15.438 14.5 16.328 14.5 17.438C14.5 17.9684 14.2893 18.4771 13.9142 18.8522C13.5391 19.2273 13.0304 19.438 12.5 19.438Z" fill="black"/>
</svg>
