<svg width="12" height="17" viewBox="0 0 12 17" fill="none" xmlns="http://www.w3.org/2000/svg">
<path d="M11.0983 5.83333C11.0983 2.9 8.69831 0.5 5.76497 0.5C2.83164 0.5 0.431641 2.9 0.431641 5.83333C0.431641 7.56667 1.23164 9.1 2.49831 10.0333L1.76497 15.7667C1.69831 16.0333 1.83164 16.3 2.03164 16.4333C2.23164 16.5667 2.49831 16.5667 2.76497 16.4333L5.76497 14.6333L8.76497 16.4333C8.83164 16.5 8.96497 16.5 9.09831 16.5C9.23164 16.5 9.36497 16.4333 9.43164 16.3667C9.63164 16.2333 9.76497 15.9667 9.69831 15.7L8.96497 10.0333C10.2983 9.1 11.0983 7.56667 11.0983 5.83333ZM1.76497 5.83333C1.76497 3.63333 3.56497 1.83333 5.76497 1.83333C7.96497 1.83333 9.76497 3.63333 9.76497 5.83333C9.76497 8.03333 7.96497 9.83333 5.76497 9.83333C3.56497 9.83333 1.76497 8.03333 1.76497 5.83333ZM8.23164 14.5667L6.09831 13.3C5.89831 13.1667 5.63164 13.1667 5.43164 13.3L3.29831 14.5667L3.76497 10.7667C4.36497 11.0333 5.03164 11.1667 5.76497 11.1667C6.49831 11.1667 7.16497 11.0333 7.76497 10.7667L8.23164 14.5667Z" fill="#637381"/>
</svg>
