<svg width="20" height="20" viewBox="0 0 20 20" fill="none" xmlns="http://www.w3.org/2000/svg">
<path d="M14 20C13.4 20 13 19.6 13 19V16C13 14.3 14.3 13 16 13H19C19.6 13 20 13.4 20 14C20 14.6 19.6 15 19 15H16C15.4 15 15 15.4 15 16V19C15 19.6 14.6 20 14 20ZM6 20C5.4 20 5 19.6 5 19V16C5 15.4 4.6 15 4 15H1C0.4 15 0 14.6 0 14C0 13.4 0.4 13 1 13H4C5.7 13 7 14.3 7 16V19C7 19.6 6.6 20 6 20ZM19 7H16C14.3 7 13 5.7 13 4V1C13 0.4 13.4 0 14 0C14.6 0 15 0.4 15 1V4C15 4.6 15.4 5 16 5H19C19.6 5 20 5.4 20 6C20 6.6 19.6 7 19 7ZM4 7H1C0.4 7 0 6.6 0 6C0 5.4 0.4 5 1 5H4C4.6 5 5 4.6 5 4V1C5 0.4 5.4 0 6 0C6.6 0 7 0.4 7 1V4C7 5.7 5.7 7 4 7Z" fill="#ADB5BD"/>
</svg>
