<svg width="16" height="16" viewBox="0 0 16 16" fill="none" xmlns="http://www.w3.org/2000/svg">
<path fill-rule="evenodd" clip-rule="evenodd" d="M1.93314 0.466065L14.9998 13.4661C15.2665 13.7327 15.2665 14.1327 14.9331 14.3994C14.7331 14.6661 14.3331 14.6661 14.0665 14.4661L13.9998 14.3994L11.8665 12.2661C10.9998 13.0661 8.99981 14.7994 8.06647 15.5994C7.86647 15.7327 7.53314 15.7994 7.26647 15.5994C3.53314 12.9327 1.66647 10.0661 1.66647 7.06607C1.66647 5.73273 2.1998 4.46607 2.9998 3.3994L0.999805 1.3994C0.733138 1.13273 0.733138 0.732732 0.999805 0.466065C1.1998 0.199399 1.5998 0.199399 1.86647 0.399399L1.93314 0.466065ZM7.9998 8.33273L6.39981 6.73273C6.33314 6.86607 6.33314 6.9994 6.33314 7.06607C6.33314 7.7994 6.93314 8.3994 7.66647 8.3994C7.73314 8.3994 7.78314 8.38273 7.83314 8.36607C7.88314 8.3494 7.93314 8.33273 7.9998 8.33273ZM2.9998 7.13273C2.9998 9.53273 4.53314 11.9327 7.66647 14.2661C7.9897 13.9722 8.5072 13.51 9.05342 13.0221C9.74646 12.4031 10.4857 11.7428 10.9331 11.3327L10.1998 10.5994L8.99981 9.3994C8.5998 9.66607 8.13314 9.7994 7.66647 9.7994C6.1998 9.7994 4.9998 8.5994 4.9998 7.13273C4.9998 6.66607 5.19981 6.1994 5.39981 5.7994L5.13314 5.53273L3.9998 4.3994H3.93314C3.33314 5.1994 2.9998 6.13273 2.9998 7.13273ZM12.7339 9.06641H12.8672C13.2005 9.06641 13.4672 8.86641 13.5339 8.59974C13.6672 7.99974 13.7339 7.46641 13.6672 6.73307C13.4672 3.66641 10.7339 1.06641 7.6672 1.06641C7.20053 1.06641 6.73387 1.13307 6.2672 1.26641C5.93387 1.33307 5.73387 1.73307 5.80053 2.06641C5.93387 2.39974 6.2672 2.59974 6.53387 2.53307C6.8672 2.46641 7.2672 2.39974 7.60053 2.39974C10.0005 2.39974 12.1339 4.46641 12.2672 6.79974C12.3301 7.36619 12.2742 7.75439 12.2117 8.18871C12.208 8.21443 12.2043 8.24032 12.2005 8.26641C12.1339 8.66641 12.4005 8.99974 12.7339 9.06641Z" fill="white"/>
</svg>
