<svg width="24" height="24" viewBox="0 0 24 24" fill="none" xmlns="http://www.w3.org/2000/svg">
<path d="M8.60938 18H6.19531V11.3906L6.21875 10.3047L6.25781 9.11719C5.85677 9.51823 5.57812 9.78125 5.42188 9.90625L4.10938 10.9609L2.94531 9.50781L6.625 6.57812H8.60938V18Z" fill="#787878"/>
<path d="M19.7656 18H11.7812V16.3203L14.6484 13.4219C15.4974 12.5521 16.0521 11.9505 16.3125 11.6172C16.5729 11.2786 16.7604 10.9661 16.875 10.6797C16.9896 10.3932 17.0469 10.0964 17.0469 9.78906C17.0469 9.33073 16.9193 8.98958 16.6641 8.76562C16.4141 8.54167 16.0781 8.42969 15.6562 8.42969C15.2135 8.42969 14.7839 8.53125 14.3672 8.73438C13.9505 8.9375 13.5156 9.22656 13.0625 9.60156L11.75 8.04688C12.3125 7.56771 12.7786 7.22917 13.1484 7.03125C13.5182 6.83333 13.9219 6.68229 14.3594 6.57812C14.7969 6.46875 15.2865 6.41406 15.8281 6.41406C16.5417 6.41406 17.1719 6.54427 17.7188 6.80469C18.2656 7.0651 18.6901 7.42969 18.9922 7.89844C19.2943 8.36719 19.4453 8.90365 19.4453 9.50781C19.4453 10.0339 19.3516 10.5286 19.1641 10.9922C18.9818 11.4505 18.6953 11.9219 18.3047 12.4062C17.9193 12.8906 17.237 13.5807 16.2578 14.4766L14.7891 15.8594V15.9688H19.7656V18Z" fill="#787878"/>
<path fill-rule="evenodd" clip-rule="evenodd" d="M9.60944 19H5.19538V11.3798L5.19557 11.371L3.95514 12.3678L1.53784 9.35022L6.2756 5.57812H9.60944V19ZM5.42194 9.90625C5.57819 9.78125 5.85684 9.51823 6.25788 9.11719L6.21882 10.3047L6.19538 11.3906V18H8.60944V6.57812H6.62507L2.94538 9.50781L4.10944 10.9609L5.42194 9.90625ZM20.7657 19H10.7813V15.9093L13.9353 12.7209C14.7852 11.8501 15.3001 11.2882 15.5223 11.0044C15.7451 10.7144 15.8766 10.4832 15.9466 10.3083C16.0141 10.1395 16.0469 9.96861 16.0469 9.78906C16.0469 9.64989 16.0272 9.57356 16.0146 9.53979C16.009 9.5248 16.0048 9.51807 16.0038 9.51664L15.9968 9.5105C15.9739 9.48992 15.8976 9.42969 15.6563 9.42969C15.3726 9.42969 15.0922 9.49345 14.8055 9.63325C14.4762 9.79378 14.1076 10.0347 13.7001 10.372L12.9372 11.0033L10.3437 7.93123L11.1016 7.28563C11.6841 6.78945 12.2136 6.39739 12.6766 6.14959C13.1259 5.90911 13.6093 5.72924 14.1224 5.60661C14.6517 5.47486 15.2227 5.41406 15.8282 5.41406C16.6642 5.41406 17.4457 5.56705 18.1488 5.90183C18.8484 6.235 19.4214 6.71839 19.8328 7.35674C20.2477 8.00048 20.4454 8.72821 20.4454 9.50781C20.4454 10.1546 20.3297 10.7764 20.0923 11.3644C19.8651 11.9347 19.5214 12.4902 19.0851 13.0317C18.6876 13.5306 18.0487 14.1808 17.1995 14.9688H20.7657V19ZM16.2579 14.4766C17.237 13.5807 17.9193 12.8906 18.3048 12.4062C18.6954 11.9219 18.9818 11.4505 19.1641 10.9922C19.3516 10.5286 19.4454 10.0339 19.4454 9.50781C19.4454 8.90365 19.2943 8.36719 18.9923 7.89844C18.6902 7.42969 18.2657 7.0651 17.7188 6.80469C17.1719 6.54427 16.5417 6.41406 15.8282 6.41406C15.2865 6.41406 14.7969 6.46875 14.3594 6.57812C13.9219 6.68229 13.5183 6.83333 13.1485 7.03125C12.9668 7.1285 12.7619 7.25969 12.5336 7.42484C12.331 7.57146 12.1101 7.74484 11.8708 7.94498C11.831 7.97821 11.7908 8.01217 11.7501 8.04688L13.0626 9.60156C13.5157 9.22656 13.9506 8.9375 14.3673 8.73438C14.7839 8.53125 15.2136 8.42969 15.6563 8.42969C16.0782 8.42969 16.4141 8.54167 16.6641 8.76562C16.9193 8.98958 17.0469 9.33073 17.0469 9.78906C17.0469 10.0964 16.9897 10.3932 16.8751 10.6797C16.7605 10.9661 16.573 11.2786 16.3126 11.6172C16.0522 11.9505 15.4975 12.5521 14.6485 13.4219L11.7813 16.3203V18H19.7657V15.9688H14.7891V15.8594L16.2579 14.4766Z" fill="white"/>
</svg>
