<svg width="24" height="24" viewBox="0 0 24 24" fill="none" xmlns="http://www.w3.org/2000/svg">
<path fill-rule="evenodd" clip-rule="evenodd" d="M12 1.75C11.8184 1.75 11.6442 1.82215 11.5158 1.95057C11.3874 2.07899 11.3152 2.25317 11.3152 2.43478V3.52728C9.30734 3.69165 7.41983 4.56352 5.99168 5.99168C4.56352 7.41983 3.69165 9.30734 3.52728 11.3152H2.43478C2.25317 11.3152 2.07899 11.3874 1.95057 11.5158C1.82215 11.6442 1.75 11.8184 1.75 12C1.75 12.1816 1.82215 12.3558 1.95057 12.4842C2.07899 12.6126 2.25317 12.6848 2.43478 12.6848H3.52667C3.68615 14.6965 4.55584 16.5892 5.98446 18.0217C7.41323 19.4545 9.30371 20.3295 11.3152 20.4944V21.5652C11.3152 21.7468 11.3874 21.921 11.5158 22.0494C11.6442 22.1779 11.8184 22.25 12 22.25C12.1816 22.25 12.3558 22.1779 12.4842 22.0494C12.6126 21.921 12.6848 21.7468 12.6848 21.5652V20.495C14.7001 20.335 16.5958 19.4622 18.029 18.029C19.4622 16.5958 20.335 14.7001 20.495 12.6848H21.5652C21.7468 12.6848 21.921 12.6126 22.0494 12.4842C22.1779 12.3558 22.25 12.1816 22.25 12C22.25 11.8184 22.1779 11.6442 22.0494 11.5158C21.921 11.3874 21.7468 11.3152 21.5652 11.3152H20.4944C20.3295 9.30371 19.4545 7.41323 18.0217 5.98446C16.5892 4.55584 14.6965 3.68615 12.6848 3.52667V2.43478C12.6848 2.25317 12.6126 2.07899 12.4842 1.95057C12.3558 1.82215 12.1816 1.75 12 1.75ZM12.6848 5.91304V4.90004C14.3328 5.05564 15.8789 5.77958 17.0551 6.95216C18.2312 8.12453 18.9599 9.66797 19.1208 11.3152H18.087C17.9053 11.3152 17.7312 11.3874 17.6027 11.5158C17.4743 11.6442 17.4022 11.8184 17.4022 12C17.4022 12.1816 17.4743 12.3558 17.6027 12.4842C17.7312 12.6126 17.9053 12.6848 18.087 12.6848H19.1217C18.9654 14.3362 18.2386 15.8849 17.0618 17.0618C15.8849 18.2386 14.3362 18.9654 12.6848 19.1217V18.087C12.6848 17.9053 12.6126 17.7312 12.4842 17.6027C12.3558 17.4743 12.1816 17.4022 12 17.4022C11.8184 17.4022 11.6442 17.4743 11.5158 17.6027C11.3874 17.7312 11.3152 17.9053 11.3152 18.087V19.1208C9.66797 18.9599 8.12453 18.2312 6.95216 17.0551C5.77958 15.8789 5.05564 14.3328 4.90004 12.6848H5.91304C6.09466 12.6848 6.26884 12.6126 6.39726 12.4842C6.52568 12.3558 6.59783 12.1816 6.59783 12C6.59783 11.8184 6.52568 11.6442 6.39726 11.5158C6.26884 11.3874 6.09466 11.3152 5.91304 11.3152H4.90086C5.06115 9.67131 5.78697 8.13058 6.95877 6.95877C8.13058 5.78697 9.67131 5.06115 11.3152 4.90086V5.91304C11.3152 6.09466 11.3874 6.26884 11.5158 6.39726C11.6442 6.52568 11.8184 6.59783 12 6.59783C12.1816 6.59783 12.3558 6.52568 12.4842 6.39726C12.6126 6.26884 12.6848 6.09466 12.6848 5.91304ZM12 7.40217C11.0906 7.40217 10.2017 7.67183 9.44558 8.17705C8.68948 8.68226 8.10016 9.40035 7.75216 10.2405C7.40416 11.0806 7.31311 12.0051 7.49052 12.897C7.66793 13.7889 8.10583 14.6081 8.74885 15.2512C9.39186 15.8942 10.2111 16.3321 11.103 16.5095C11.9949 16.6869 12.9194 16.5958 13.7595 16.2478C14.5997 15.8998 15.3177 15.3105 15.823 14.5544C16.3282 13.7983 16.5978 12.9094 16.5978 12C16.5978 10.7806 16.1134 9.61111 15.2512 8.74885C14.3889 7.88659 13.2194 7.40217 12 7.40217ZM11.3702 8.83377C11.9964 8.70921 12.6455 8.77314 13.2354 9.01748C13.8253 9.26181 14.3295 9.67559 14.6842 10.2065C15.0389 10.7374 15.2283 11.3615 15.2283 12C15.2283 12.8562 14.8881 13.6773 14.2827 14.2827C13.6773 14.8881 12.8562 15.2283 12 15.2283C11.3615 15.2283 10.7374 15.0389 10.2065 14.6842C9.67559 14.3295 9.26181 13.8253 9.01748 13.2354C8.77314 12.6455 8.70921 11.9964 8.83377 11.3702C8.95833 10.744 9.26579 10.1688 9.71727 9.71727C10.1688 9.26579 10.744 8.95833 11.3702 8.83377ZM12 10.8804C11.7786 10.8804 11.5621 10.9461 11.378 11.0691C11.1939 11.1921 11.0504 11.367 10.9657 11.5716C10.8809 11.7761 10.8587 12.0012 10.9019 12.2184C10.9451 12.4356 11.0518 12.6351 11.2083 12.7917C11.3649 12.9482 11.5644 13.0549 11.7816 13.0981C11.9988 13.1413 12.2239 13.1191 12.4284 13.0343C12.633 12.9496 12.8079 12.8061 12.9309 12.622C13.0539 12.4379 13.1196 12.2214 13.1196 12C13.1196 11.7031 13.0016 11.4183 12.7917 11.2083C12.5817 10.9984 12.2969 10.8804 12 10.8804Z" fill="#004B7B"/>
</svg>
