<svg width="24" height="25" viewBox="0 0 24 25" fill="none" xmlns="http://www.w3.org/2000/svg">
<path d="M2 15.2505C3.67 14.5005 5.33 13.7505 7 13.4205V5.25049C7 4.45484 7.31607 3.69178 7.87868 3.12917C8.44129 2.56656 9.20435 2.25049 10 2.25049C11.31 2.25049 12.42 3.08049 12.83 4.25049H10C9.73478 4.25049 9.48043 4.35585 9.29289 4.54338C9.10536 4.73092 9 4.98527 9 5.25049V6.25049H14V5.25049C14 4.45484 14.3161 3.69178 14.8787 3.12917C15.4413 2.56656 16.2044 2.25049 17 2.25049C18.31 2.25049 19.42 3.08049 19.83 4.25049H17C16.7348 4.25049 16.4804 4.35585 16.2929 4.54338C16.1054 4.73092 16 4.98527 16 5.25049V15.1905C18 14.8705 20 13.2505 22 13.2505V15.2505C19.78 15.2505 17.56 17.2505 15.33 17.2505C13.11 17.2505 10.89 15.2505 8.67 15.2505C6.44 15.2505 4.22 16.2505 2 17.2505V15.2505ZM14 8.25049H9V10.2505H14V8.25049ZM14 12.2505H9V13.2505C10.67 13.4105 12.33 14.5605 14 15.0405V12.2505ZM2 19.2505C4.22 18.2505 6.44 17.2505 8.67 17.2505C10.89 17.2505 13.11 19.2505 15.33 19.2505C17.56 19.2505 19.78 17.2505 22 17.2505V19.2505C19.78 19.2505 17.56 21.2505 15.33 21.2505C13.11 21.2505 10.89 19.2505 8.67 19.2505C6.44 19.2505 4.22 20.2505 2 21.2505V19.2505Z" fill="black"/>
</svg>
