<svg width="80" height="80" viewBox="0 0 80 80" fill="none" xmlns="http://www.w3.org/2000/svg">
<path d="M6 8C6 6.89543 6.89543 6 8 6H12C13.1046 6 14 6.89543 14 8C14 9.10457 13.1046 10 12 10H10V12C10 13.1046 9.10457 14 8 14C6.89543 14 6 13.1046 6 12V8Z" fill="#ADB5BD"/>
<path d="M18 8C18 6.89543 18.8954 6 20 6H28C29.1046 6 30 6.89543 30 8C30 9.10457 29.1046 10 28 10H20C18.8954 10 18 9.10457 18 8Z" fill="#ADB5BD"/>
<path d="M34 8C34 6.89543 34.8954 6 36 6H44C45.1046 6 46 6.89543 46 8C46 9.10457 45.1046 10 44 10H36C34.8954 10 34 9.10457 34 8Z" fill="#ADB5BD"/>
<path d="M50 8C50 6.89543 50.8954 6 52 6H60C61.1046 6 62 6.89543 62 8C62 9.10457 61.1046 10 60 10H52C50.8954 10 50 9.10457 50 8Z" fill="#ADB5BD"/>
<path d="M66 8C66 6.89543 66.8954 6 68 6H72C73.1046 6 74 6.89543 74 8V12C74 13.1046 73.1046 14 72 14C70.8954 14 70 13.1046 70 12V10H68C66.8954 10 66 9.10457 66 8Z" fill="#ADB5BD"/>
<path d="M8 18C9.10457 18 10 18.8954 10 20V28C10 29.1046 9.10457 30 8 30C6.89543 30 6 29.1046 6 28V20C6 18.8954 6.89543 18 8 18Z" fill="#ADB5BD"/>
<path d="M72 18C73.1046 18 74 18.8954 74 20V28C74 29.1046 73.1046 30 72 30C70.8954 30 70 29.1046 70 28V20C70 18.8954 70.8954 18 72 18Z" fill="#ADB5BD"/>
<path d="M8 34C9.10457 34 10 34.8954 10 36V44C10 45.1046 9.10457 46 8 46C6.89543 46 6 45.1046 6 44V36C6 34.8954 6.89543 34 8 34Z" fill="#ADB5BD"/>
<path fill-rule="evenodd" clip-rule="evenodd" d="M72 34C73.1046 34 74 34.8954 74 36V44C74 44.0067 74 44.0134 73.9999 44.0201V48C73.9999 62.3594 62.3593 74 47.9999 74H36C34.8954 74 34 73.1046 34 72C34 70.8954 34.8954 70 36 70H44C47.3137 70 49.9999 67.3138 49.9999 64.0001V52C49.9999 50.8954 50.8953 50 51.9999 50H63.9999C67.3136 50 69.9999 47.3137 69.9999 44L70 36C70 34.8954 70.8954 34 72 34ZM63.9999 54C66.0662 54 67.9861 53.3733 69.58 52.2996C67.856 61.0009 61.0008 67.8561 52.2996 69.58C53.3732 67.9862 53.9999 66.0663 53.9999 64.0001V54H63.9999Z" fill="#ADB5BD"/>
<path d="M8 50C9.10457 50 10 50.8954 10 52V60C10 61.1046 9.10457 62 8 62C6.89543 62 6 61.1046 6 60V52C6 50.8954 6.89543 50 8 50Z" fill="#ADB5BD"/>
<path d="M8 66C9.10457 66 10 66.8954 10 68V70H12C13.1046 70 14 70.8954 14 72C14 73.1046 13.1046 74 12 74H8C6.89543 74 6 73.1046 6 72V68C6 66.8954 6.89543 66 8 66Z" fill="#ADB5BD"/>
<path d="M18 72C18 70.8954 18.8954 70 20 70H28C29.1046 70 30 70.8954 30 72C30 73.1046 29.1046 74 28 74H20C18.8954 74 18 73.1046 18 72Z" fill="#ADB5BD"/>
</svg>
