<svg width="24" height="25" viewBox="0 0 24 25" fill="none" xmlns="http://www.w3.org/2000/svg">
<circle cx="12" cy="12.3208" r="9" fill="#A7A73C"/>
<path d="M12 3.32083C7.04 3.32083 3 7.36083 3 12.3208C3 17.2808 7.04 21.3208 12 21.3208C16.96 21.3208 21 17.2808 21 12.3208C21 7.36083 16.96 3.32083 12 3.32083ZM12 19.3208C8.14 19.3208 5 16.1808 5 12.3208C5 8.46083 8.14 5.32083 12 5.32083C15.86 5.32083 19 8.46083 19 12.3208C19 16.1808 15.86 19.3208 12 19.3208Z" fill="#C3B126"/>
<circle cx="12" cy="12.3208" r="6" fill="#A7A73C"/>
<path d="M12 6.32083C8.69333 6.32083 6 9.01416 6 12.3208C6 15.6275 8.69333 18.3208 12 18.3208C15.3067 18.3208 18 15.6275 18 12.3208C18 9.01416 15.3067 6.32083 12 6.32083ZM12 16.9875C9.42667 16.9875 7.33333 14.8942 7.33333 12.3208C7.33333 9.7475 9.42667 7.65416 12 7.65416C14.5733 7.65416 16.6667 9.7475 16.6667 12.3208C16.6667 14.8942 14.5733 16.9875 12 16.9875Z" fill="#C3B126"/>
</svg>
