<svg width="24" height="24" viewBox="0 0 24 24" fill="none" xmlns="http://www.w3.org/2000/svg">
<path fill-rule="evenodd" clip-rule="evenodd" d="M16.2929 4.29289C16.6834 3.90237 17.3166 3.90237 17.7071 4.29289L21.7071 8.29289C22.0976 8.68342 22.0976 9.31658 21.7071 9.70711C21.3166 10.0976 20.6834 10.0976 20.2929 9.70711L18 7.41421V19C18 19.5523 17.5523 20 17 20C16.4477 20 16 19.5523 16 19V7.41421L13.7071 9.70711C13.3166 10.0976 12.6834 10.0976 12.2929 9.70711C11.9024 9.31658 11.9024 8.68342 12.2929 8.29289L16.2929 4.29289Z" fill="#ADB5BD"/>
<path fill-rule="evenodd" clip-rule="evenodd" d="M3.17647 7C2.52672 7 2 6.55228 2 6C2 5.44772 2.52672 5 3.17647 5H6.82353C7.47328 5 8 5.44772 8 6C8 6.55228 7.47328 7 6.82353 7H3.17647ZM3 13C2.44772 13 2 12.5523 2 12C2 11.4477 2.44772 11 3 11H9C9.55228 11 10 11.4477 10 12C10 12.5523 9.55228 13 9 13H3ZM2 18C2 18.5523 2.44772 19 3 19H13C13.5523 19 14 18.5523 14 18C14 17.4477 13.5523 17 13 17H3C2.44772 17 2 17.4477 2 18Z" fill="#ADB5BD"/>
</svg>
