<svg width="24" height="24" viewBox="0 0 24 24" fill="none" xmlns="http://www.w3.org/2000/svg">
<path fill-rule="evenodd" clip-rule="evenodd" d="M16 16.5858V5C16 4.44772 16.4477 4 17 4C17.5523 4 18 4.44772 18 5V16.5858L20.2929 14.2929C20.6834 13.9024 21.3166 13.9024 21.7071 14.2929C22.0976 14.6834 22.0976 15.3166 21.7071 15.7071L17.7071 19.7071C17.5196 19.8946 17.2652 20 17 20C16.7348 20 16.4804 19.8946 16.2929 19.7071L12.2929 15.7071C11.9024 15.3166 11.9024 14.6834 12.2929 14.2929C12.6834 13.9024 13.3166 13.9024 13.7071 14.2929L16 16.5858Z" fill="#ADB5BD"/>
<path fill-rule="evenodd" clip-rule="evenodd" d="M3.17647 17C2.52672 17 2 17.4477 2 18C2 18.5523 2.52672 19 3.17647 19H6.82353C7.47328 19 8 18.5523 8 18C8 17.4477 7.47328 17 6.82353 17H3.17647ZM3 11C2.44772 11 2 11.4477 2 12C2 12.5523 2.44772 13 3 13H9C9.55228 13 10 12.5523 10 12C10 11.4477 9.55228 11 9 11H3ZM2 6C2 5.44771 2.44772 5 3 5H13C13.5523 5 14 5.44771 14 6C14 6.55229 13.5523 7 13 7H3C2.44772 7 2 6.55229 2 6Z" fill="#ADB5BD"/>
</svg>
