<svg width="24" height="24" viewBox="0 0 24 24" fill="none" xmlns="http://www.w3.org/2000/svg">
<g clip-path="url(#clip0)">
<path d="M12 2.00101C6.47723 2.00101 2 6.47802 2 12.0008C2 17.5238 6.47723 22.0008 12 22.0008C17.523 22.0008 22 17.5238 22 12.0008C22 6.47802 17.523 2.00101 12 2.00101ZM12 19.5008C7.85808 19.5008 4.50016 16.1423 4.50016 12.0006C4.50016 8.31605 7.15822 5.25401 10.6609 4.62219V13.7583L6.95687 9.98409L4.98128 11.9949L12.0015 19.0852L19.0571 12.0296L17.0111 9.98409L13.2715 13.7237V4.61053C16.8079 5.21438 19.5003 8.29231 19.5003 12.0008C19.5001 16.1425 16.1423 19.5008 12 19.5008Z" fill="#009EE0"/>
</g>
<defs>
<clipPath id="clip0">
<rect width="20" height="20" fill="white" transform="translate(2 2)"/>
</clipPath>
</defs>
</svg>
