<svg width="24" height="25" viewBox="0 0 24 25" fill="none" xmlns="http://www.w3.org/2000/svg">
<g clip-path="url(#clip0)">
<path d="M24.4299 15.2133H15.6399L16.9799 17.5233H24.4299V15.2133Z" fill="#84BD00"/>
<path d="M9.78995 17.5233H6.19995V20.9833H9.78995V17.5233Z" fill="#034638"/>
<path d="M11.82 15.2133H-1V17.5233H13.14L11.82 15.2133Z" fill="#84BD00"/>
<path d="M15.64 15.2133C17.3787 14.3568 18.4937 12.6012 18.53 10.6633C18.5353 9.23392 17.9705 7.86138 16.9607 6.84969C15.9509 5.838 14.5794 5.27066 13.15 5.27332H6.19995V15.2133H11.81L15.12 20.9833H19L15.64 15.2133ZM13.15 12.6733H9.78995V8.67333H13.14C13.6441 8.69917 14.1173 8.92458 14.455 9.29981C14.7927 9.67504 14.9672 10.1692 14.94 10.6733C14.9968 11.7195 14.196 12.6142 13.15 12.6733Z" fill="#034638"/>
</g>
<defs>
<clipPath id="clip0">
<rect width="24" height="24" fill="white" transform="translate(0 0.775024)"/>
</clipPath>
</defs>
</svg>
