<svg width="22" height="22" viewBox="0 0 22 22" fill="none" xmlns="http://www.w3.org/2000/svg">
<path fill-rule="evenodd" clip-rule="evenodd" d="M12.1 19.712C13.3981 19.5533 14.578 19.1441 15.6397 18.4781C16.0392 18.2227 16.425 17.9301 16.797 17.6C18.469 16.082 19.437 14.245 19.712 12.1H16.412C16.17 13.2 15.664 14.124 14.894 14.894C14.124 15.664 13.2 16.17 12.1 16.412V19.712ZM4.785 17.16C3.98463 16.3596 3.37379 15.48 2.94861 14.5192C2.61767 13.7623 2.3977 12.9556 2.288 12.1H5.588C5.83 13.2 6.336 14.124 7.106 14.894C7.876 15.664 8.8 16.17 9.9 16.412V19.712C7.92 19.437 6.215 18.59 4.785 17.16ZM5.588 9.9L2.288 9.9C2.563 7.755 3.531 5.918 5.203 4.4C5.57504 4.06984 5.96089 3.77721 6.3604 3.52186C7.42208 2.85587 8.60194 2.44665 9.9 2.288V5.588C8.8 5.83 7.876 6.336 7.106 7.106C6.336 7.876 5.83 8.8 5.588 9.9ZM19.712 9.9C19.6023 9.04438 19.3823 8.23776 19.0514 7.48085C18.6262 6.52002 18.0154 5.64038 17.215 4.84C15.785 3.41 14.08 2.563 12.1 2.288V5.588C13.2 5.83 14.124 6.336 14.894 7.106C15.664 7.876 16.17 8.8 16.412 9.9L19.712 9.9ZM11 0C14.025 0 16.61 1.1 18.755 3.245C20.7659 5.25594 21.8584 7.65359 21.9871 10.438C21.9957 10.6236 22 10.8109 22 11C22 13.6469 21.1578 15.9569 19.5103 17.93C19.2749 18.2119 19.0231 18.4869 18.755 18.755C16.7441 20.7659 14.3464 21.8584 11.562 21.9871C11.3764 21.9957 11.1891 22 11 22C7.975 22 5.39 20.9 3.245 18.755C1.1 16.61 0 14.025 0 11C0 7.975 1.1 5.39 3.245 3.245C5.39 1.1 7.975 0 11 0ZM10.0833 11.9167V6.41667H11.9167V11.9167H10.0833ZM10.0833 15.5833V13.75H11.9167V15.5833H10.0833Z" fill="#339900"/>
</svg>
