<svg width="23" height="23" viewBox="0 0 23 23" fill="none" xmlns="http://www.w3.org/2000/svg">
<path fill-rule="evenodd" clip-rule="evenodd" d="M8.44601 6.75442L14.3475 12.601H14.3604L16.013 14.251C16.31 13.756 16.53 13.195 16.662 12.601L19.962 12.601C19.7717 14.0853 19.2496 15.4221 18.392 16.6078L19.9721 18.1732C20.1855 17.9009 20.3842 17.6225 20.5681 17.338C21.6826 15.6193 22.25 13.6736 22.25 11.501C22.25 8.47598 21.15 5.89098 19.005 3.74598C16.86 1.60098 14.275 0.500977 11.25 0.500977C9.07812 0.500976 7.13306 1.06802 5.41481 2.18174C5.12029 2.37198 4.83236 2.57811 4.551 2.79998L4.55254 2.8015C4.53467 2.81566 4.51683 2.82988 4.49901 2.84417L6.06482 4.39541C7.26345 3.50747 8.62518 2.97534 10.15 2.78898V6.08898C9.52685 6.22607 8.96019 6.44788 8.44601 6.75442ZM19.962 10.401L16.75 10.401L16.6358 10.2868C16.3845 9.23684 15.8872 8.35018 15.144 7.60698C14.374 6.83698 13.45 6.33098 12.35 6.08898L12.35 2.78898C14.33 3.06398 16.035 3.91098 17.465 5.34098C18.2654 6.14139 18.8763 7.02106 19.3015 7.98193C19.6324 8.73881 19.8523 9.54539 19.962 10.401Z" fill="#339900"/>
<path fill-rule="evenodd" clip-rule="evenodd" d="M1.66628 2.70926L1.658 2.70098L0.25 4.09798L1.89511 5.72116C0.812379 7.41416 0.257598 9.32611 0.250077 11.457L0.25 11.501C0.25 11.69 0.254296 11.8774 0.262877 12.063C0.391581 14.8474 1.48406 17.245 3.495 19.256C3.76313 19.5241 4.03813 19.7759 4.32 20.0113C6.29313 21.6588 8.60312 22.501 11.25 22.501C13.3986 22.501 15.3252 21.946 17.0298 20.8559L18.653 22.501L20.05 21.093L19.1762 20.2191L1.64219 2.73428L1.66628 2.70926ZM2.538 12.601C2.64768 13.4565 2.86761 14.263 3.19848 15.0199C3.62366 15.9808 4.23455 16.8605 5.035 17.661C6.465 19.091 8.17 19.938 10.15 20.213V16.913C9.05 16.671 8.126 16.165 7.356 15.395C6.586 14.625 6.08 13.701 5.838 12.601L2.538 12.601ZM3.506 7.35398L5.99237 9.83003C5.94424 9.97872 5.90153 10.1309 5.86423 10.2868L5.75 10.401L2.538 10.401C2.681 9.30098 3 8.28898 3.506 7.35398ZM12.35 20.213C13.45 20.081 14.473 19.751 15.408 19.256L12.9 16.759C12.7529 16.8141 12.5905 16.8539 12.4384 16.8912C12.4085 16.8985 12.3789 16.9058 12.35 16.913V20.213Z" fill="#339900"/>
</svg>
