<svg width="24" height="24" viewBox="0 0 24 24" fill="none" xmlns="http://www.w3.org/2000/svg">
<path fill-rule="evenodd" clip-rule="evenodd" d="M16.6397 19.4781C15.578 20.1441 14.3981 20.5533 13.1 20.712V17.412C14.2 17.17 15.124 16.664 15.894 15.894C16.664 15.124 17.17 14.2 17.412 13.1H20.712C20.437 15.245 19.469 17.082 17.797 18.6C17.425 18.9301 17.0392 19.2227 16.6397 19.4781ZM3.94861 15.5192C4.37379 16.48 4.98463 17.3596 5.785 18.16C7.215 19.59 8.92 20.437 10.9 20.712V17.412C9.8 17.17 8.876 16.664 8.106 15.894C7.336 15.124 6.83 14.2 6.588 13.1H3.288C3.3977 13.9556 3.61767 14.7623 3.94861 15.5192ZM3.288 10.9L6.588 10.9C6.83 9.8 7.336 8.876 8.106 8.106C8.876 7.336 9.8 6.83 10.9 6.588V3.288C9.60194 3.44665 8.42208 3.85587 7.3604 4.52186C6.96089 4.77721 6.57504 5.06984 6.203 5.4C4.531 6.918 3.563 8.755 3.288 10.9ZM20.0514 8.48085C20.3823 9.23776 20.6023 10.0444 20.712 10.9L17.412 10.9C17.17 9.8 16.664 8.876 15.894 8.106C15.124 7.336 14.2 6.83 13.1 6.588V3.288C15.08 3.563 16.785 4.41 18.215 5.84C19.0154 6.64038 19.6262 7.52002 20.0514 8.48085ZM19.755 4.245C17.61 2.1 15.025 1 12 1C8.975 1 6.39 2.1 4.245 4.245C2.1 6.39 1 8.975 1 12C1 15.025 2.1 17.61 4.245 19.755C6.39 21.9 8.975 23 12 23C12.1891 23 12.3764 22.9957 12.562 22.9871C15.3464 22.8584 17.7441 21.7659 19.755 19.755C20.0231 19.4869 20.2749 19.2119 20.5103 18.93C22.1578 16.9569 23 14.6469 23 12C23 11.8109 22.9957 11.6236 22.9871 11.438C22.8584 8.65359 21.7659 6.25594 19.755 4.245Z" fill="#339900"/>
</svg>
