<svg width="24" height="25" viewBox="0 0 24 25" fill="none" xmlns="http://www.w3.org/2000/svg">
<path d="M11 21.25V16.99C10.53 17.16 10.03 17.25 9.5 17.25C7 17.25 5 15.25 5 12.75C5 11.48 5.5 10.34 6.36 9.52C6.13 8.98 6 8.38 6 7.75C6 5.25 8 3.25 10.5 3.25C12.06 3.25 13.44 4.05 14.25 5.25C14.33 5.25 14.41 5.25 14.5 5.25C15.2223 5.25 15.9375 5.39226 16.6048 5.66866C17.272 5.94506 17.8784 6.35019 18.3891 6.86091C18.8998 7.37164 19.3049 7.97795 19.5813 8.64524C19.8577 9.31253 20 10.0277 20 10.75C20 11.4723 19.8577 12.1875 19.5813 12.8548C19.3049 13.522 18.8998 14.1284 18.3891 14.6391C17.8784 15.1498 17.272 15.5549 16.6048 15.8313C15.9375 16.1077 15.2223 16.25 14.5 16.25C14 16.25 13.5 16.18 13 16.04V21.25H11Z" fill="#339900"/>
</svg>
