<svg width="24" height="24" viewBox="0 0 24 24" fill="none" xmlns="http://www.w3.org/2000/svg">
<rect width="24" height="24" fill="white" fill-opacity="0.01"/>
<circle cx="12" cy="12" r="6" fill="#499DFF"/>
<path d="M12 6C8.69333 6 6 8.69333 6 12C6 15.3067 8.69333 18 12 18C15.3067 18 18 15.3067 18 12C18 8.69333 15.3067 6 12 6ZM12 16.6667C9.42667 16.6667 7.33333 14.5733 7.33333 12C7.33333 9.42667 9.42667 7.33333 12 7.33333C14.5733 7.33333 16.6667 9.42667 16.6667 12C16.6667 14.5733 14.5733 16.6667 12 16.6667Z" fill="black"/>
<path d="M0.0625 11.75H6.75" stroke="black" stroke-width="1.25"/>
<path d="M17.3125 11.75H24" stroke="black" stroke-width="1.25"/>
</svg>
