<svg width="16" height="16" viewBox="0 0 16 16" fill="none" xmlns="http://www.w3.org/2000/svg">
<path fill-rule="evenodd" clip-rule="evenodd" d="M15.3327 7.99996C15.3327 12.05 12.0494 15.3333 7.99935 15.3333C3.94926 15.3333 0.666016 12.05 0.666016 7.99996C0.666016 3.94987 3.94926 0.666626 7.99935 0.666626C12.0494 0.666626 15.3327 3.94987 15.3327 7.99996ZM11.1374 6.19522C10.8771 5.93487 10.455 5.93487 10.1946 6.19522L7.33268 9.05715L6.47075 8.19522C6.2104 7.93487 5.78829 7.93487 5.52794 8.19522C5.2676 8.45557 5.2676 8.87768 5.52794 9.13803L6.86128 10.4714C7.12163 10.7317 7.54374 10.7317 7.80409 10.4714L11.1374 7.13803C11.3978 6.87768 11.3978 6.45557 11.1374 6.19522Z" fill="#637381"/>
</svg>
