<svg width="14" height="15" viewBox="0 0 14 15" fill="none" xmlns="http://www.w3.org/2000/svg">
<path fill-rule="evenodd" clip-rule="evenodd" d="M9.66732 0C9.29913 0 9.00065 0.298477 9.00065 0.666667V1.33333H5.00065V0.666667C5.00065 0.298477 4.70217 0 4.33398 0C3.96579 0 3.66732 0.298477 3.66732 0.666667V1.33333H2.33398C1.22941 1.33333 0.333984 2.22876 0.333984 3.33333V6V12.6667C0.333984 13.7712 1.22941 14.6667 2.33398 14.6667H11.6673C12.7719 14.6667 13.6673 13.7712 13.6673 12.6667V11.3333C13.6673 10.9651 13.3688 10.6667 13.0007 10.6667C12.6325 10.6667 12.334 10.9651 12.334 11.3333V12.6667C12.334 13.0349 12.0355 13.3333 11.6673 13.3333H2.33398C1.96579 13.3333 1.66732 13.0349 1.66732 12.6667V6.66667H12.334V8.66667C12.334 9.03486 12.6325 9.33333 13.0007 9.33333C13.3688 9.33333 13.6673 9.03486 13.6673 8.66667V6V3.33333C13.6673 2.22876 12.7719 1.33333 11.6673 1.33333H10.334V0.666667C10.334 0.298477 10.0355 0 9.66732 0ZM12.334 5.33333V3.33333C12.334 2.96514 12.0355 2.66667 11.6673 2.66667H10.334V3.33333C10.334 3.70152 10.0355 4 9.66732 4C9.29913 4 9.00065 3.70152 9.00065 3.33333V2.66667H5.00065V3.33333C5.00065 3.70152 4.70217 4 4.33398 4C3.96579 4 3.66732 3.70152 3.66732 3.33333V2.66667H2.33398C1.96579 2.66667 1.66732 2.96514 1.66732 3.33333V5.33333H12.334Z" fill="#637381"/>
</svg>
