<svg width="16" height="16" viewBox="0 0 16 16" fill="none" xmlns="http://www.w3.org/2000/svg">
<path fill-rule="evenodd" clip-rule="evenodd" d="M7.99935 15.3334C12.0494 15.3334 15.3327 12.0501 15.3327 8.00002C15.3327 3.94993 12.0494 0.666687 7.99935 0.666687C3.94926 0.666687 0.666016 3.94993 0.666016 8.00002C0.666016 12.0501 3.94926 15.3334 7.99935 15.3334ZM5.17092 10.8284C4.91057 10.5681 4.91057 10.146 5.17092 9.88564L7.05654 8.00002L5.17092 6.1144C4.91057 5.85405 4.91057 5.43194 5.17092 5.17159C5.43127 4.91124 5.85338 4.91124 6.11373 5.17159L7.99935 7.05721L9.88497 5.17159C10.1453 4.91124 10.5674 4.91124 10.8278 5.17159C11.0881 5.43194 11.0881 5.85405 10.8278 6.1144L8.94216 8.00002L10.8278 9.88564C11.0881 10.146 11.0881 10.5681 10.8278 10.8284C10.5674 11.0888 10.1453 11.0888 9.88497 10.8284L7.99935 8.94283L6.11373 10.8284C5.85338 11.0888 5.43127 11.0888 5.17092 10.8284Z" fill="#637381"/>
</svg>
