<svg width="12" height="9" viewBox="0 0 12 9" fill="none" xmlns="http://www.w3.org/2000/svg">
<path fill-rule="evenodd" clip-rule="evenodd" d="M10.8619 0.195262C11.1223 -0.0650874 11.5444 -0.0650874 11.8047 0.195262C12.0651 0.455612 12.0651 0.877722 11.8047 1.13807L6.50634 6.43647C6.24599 6.69682 5.82388 6.69682 5.56353 6.43647C5.30318 6.17612 5.30318 5.75401 5.56353 5.49366L10.8619 0.195262ZM4.4714 7.5286C4.73175 7.78895 4.73175 8.21105 4.4714 8.4714C4.21105 8.73175 3.78894 8.73175 3.5286 8.4714L0.195262 5.13807C-0.0650874 4.87772 -0.0650874 4.45561 0.195262 4.19526C0.455612 3.93491 0.877722 3.93491 1.13807 4.19526L4.4714 7.5286Z" fill="#637381"/>
</svg>
