<svg width="14" height="17" viewBox="0 0 14 17" fill="none" xmlns="http://www.w3.org/2000/svg">
<path d="M6.99982 15.8954L6.89073 16.0409L6.99982 16.1227L7.10891 16.0409L6.99982 15.8954ZM6.99982 15.8954C7.10891 16.0409 7.10897 16.0408 7.10905 16.0408L7.10932 16.0406L7.11025 16.0399L7.11368 16.0373L7.12672 16.0274C7.13811 16.0187 7.15483 16.0059 7.17654 15.9891C7.21995 15.9554 7.28329 15.9058 7.36371 15.8411C7.52454 15.7119 7.75378 15.5228 8.02864 15.2823C8.5781 14.8015 9.31117 14.1143 10.0448 13.289C11.5035 11.6479 12.9998 9.4218 12.9998 7.16816C12.9998 3.85445 10.3135 1.16816 6.99982 1.16816C3.68611 1.16816 0.999822 3.85445 0.999822 7.16816C0.999822 9.4218 2.4961 11.6479 3.95484 13.289C4.68847 14.1143 5.42154 14.8015 5.971 15.2823C6.24586 15.5228 6.4751 15.7119 6.63593 15.8411C6.71636 15.9058 6.7797 15.9554 6.8231 15.9891C6.84481 16.0059 6.86154 16.0187 6.87292 16.0274L6.88596 16.0373L6.8894 16.0399L6.89033 16.0406L6.8906 16.0408C6.89068 16.0408 6.89073 16.0409 6.99982 15.8954Z" fill="#FA6494" stroke="white" stroke-width="0.363636"/>
</svg>
