<svg width="13" height="17" viewBox="0 0 13 17" fill="none" xmlns="http://www.w3.org/2000/svg">
<path d="M6.18146 15.8955L6.07237 16.0409L6.18146 16.1228L6.29055 16.0409L6.18146 15.8955ZM6.18146 15.8955C6.29055 16.0409 6.29061 16.0409 6.29069 16.0408L6.29096 16.0406L6.29189 16.0399L6.29532 16.0374L6.30836 16.0275C6.31975 16.0188 6.33648 16.006 6.35818 15.9891C6.40159 15.9555 6.46493 15.9058 6.54535 15.8412C6.70618 15.712 6.93542 15.5228 7.21028 15.2823C7.75974 14.8015 8.49281 14.1144 9.22645 13.289C10.6852 11.6479 12.1815 9.42186 12.1815 7.16822C12.1815 3.85451 9.49517 1.16822 6.18146 1.16822C2.86775 1.16822 0.181463 3.85451 0.181463 7.16822C0.181463 9.42186 1.67774 11.6479 3.13648 13.289C3.87011 14.1144 4.60318 14.8015 5.15264 15.2823C5.4275 15.5228 5.65674 15.712 5.81757 15.8412C5.898 15.9058 5.96134 15.9555 6.00475 15.9891C6.02645 16.006 6.04318 16.0188 6.05457 16.0275L6.0676 16.0374L6.07104 16.0399L6.07197 16.0406L6.07224 16.0408C6.07232 16.0409 6.07237 16.0409 6.18146 15.8955Z" fill="#FFB833" stroke="white" stroke-width="0.363636"/>
</svg>
