<svg width="14" height="16" viewBox="0 0 14 16" fill="none" xmlns="http://www.w3.org/2000/svg">
<path d="M6.99982 15.3955L6.89073 15.5409L6.99982 15.6228L7.10891 15.5409L6.99982 15.3955ZM6.99982 15.3955C7.10891 15.5409 7.10897 15.5409 7.10905 15.5408L7.10932 15.5406L7.11025 15.5399L7.11368 15.5374L7.12672 15.5275C7.13811 15.5188 7.15483 15.506 7.17654 15.4891C7.21995 15.4555 7.28329 15.4058 7.36371 15.3412C7.52454 15.212 7.75378 15.0228 8.02864 14.7823C8.5781 14.3015 9.31117 13.6144 10.0448 12.789C11.5035 11.1479 12.9998 8.92186 12.9998 6.66822C12.9998 3.35451 10.3135 0.668218 6.99982 0.668218C3.68611 0.668218 0.999822 3.35451 0.999822 6.66822C0.999822 8.92186 2.4961 11.1479 3.95484 12.789C4.68847 13.6144 5.42154 14.3015 5.971 14.7823C6.24586 15.0228 6.4751 15.212 6.63593 15.3412C6.71636 15.4058 6.7797 15.4555 6.8231 15.4891C6.84481 15.506 6.86154 15.5188 6.87292 15.5275L6.88596 15.5374L6.8894 15.5399L6.89033 15.5406L6.8906 15.5408C6.89068 15.5409 6.89073 15.5409 6.99982 15.3955Z" fill="#ADB5BD" stroke="white" stroke-width="0.363636"/>
</svg>
