<svg width="13" height="16" viewBox="0 0 13 16" fill="none" xmlns="http://www.w3.org/2000/svg">
<path opacity="0.1" fill-rule="evenodd" clip-rule="evenodd" d="M6.00013 16.0002C8.00844 16.0002 9.6365 15.5118 9.6365 14.9093C9.6365 14.3068 8.00844 13.8184 6.00013 13.8184C3.99183 13.8184 2.36377 14.3068 2.36377 14.9093C2.36377 15.5118 3.99183 16.0002 6.00013 16.0002Z" fill="#212529"/>
<path d="M6.18195 14.9092L6.07286 15.0547L6.18195 15.1365L6.29104 15.0547L6.18195 14.9092ZM6.18195 14.9092C6.29104 15.0547 6.2911 15.0546 6.29118 15.0546L6.29144 15.0544L6.29238 15.0537L6.29581 15.0511L6.30885 15.0412C6.32024 15.0325 6.33696 15.0197 6.35867 15.0029C6.40208 14.9692 6.46542 14.9196 6.54584 14.8549C6.70667 14.7257 6.93591 14.5366 7.21077 14.2961C7.76023 13.8153 8.4933 13.1281 9.22694 12.3027C10.6857 10.6617 12.182 8.43559 12.182 6.18195C12.182 2.86824 9.49566 0.181951 6.18195 0.181951C2.86824 0.181951 0.181951 2.86824 0.181951 6.18195C0.181951 8.43559 1.67823 10.6617 3.13697 12.3027C3.8706 13.1281 4.60367 13.8153 5.15313 14.2961C5.42799 14.5366 5.65723 14.7257 5.81806 14.8549C5.89848 14.9196 5.96182 14.9692 6.00523 15.0029C6.02694 15.0197 6.04366 15.0325 6.05505 15.0412L6.06809 15.0511L6.07153 15.0537L6.07246 15.0544L6.07273 15.0546C6.0728 15.0546 6.07286 15.0547 6.18195 14.9092Z" fill="#FFB833" stroke="white" stroke-width="0.363636"/>
<path d="M4 3.99999C4 3.93569 4.02554 3.87403 4.071 3.82857C4.12424 3.77533 4.22 3.71149 4.36451 3.65369C4.58338 3.56614 4.86391 3.51514 5.21212 3.51514C5.51513 3.51514 5.73311 3.56723 6.1114 3.71197L6.3448 3.80384C6.72143 3.95189 6.90431 3.99999 7.15152 3.99999C7.43966 3.99999 7.65913 3.96008 7.81906 3.89611C7.90181 3.86301 7.94242 3.83594 7.94979 3.82857L7.9703 3.81011C8.12472 3.68546 8.36364 3.7934 8.36364 3.99999V6.90908C8.36364 6.97337 8.3381 7.03503 8.29263 7.0805C8.2394 7.13373 8.14364 7.19757 7.99913 7.25537C7.78026 7.34292 7.49973 7.39392 7.15152 7.39392C6.84851 7.39392 6.63052 7.34183 6.25223 7.19709L6.01883 7.10522C5.64221 6.95717 5.45932 6.90908 5.21212 6.90908C4.92397 6.90908 4.7045 6.94898 4.54458 7.01295C4.52133 7.02225 4.50141 7.03107 4.48462 7.03911L4.48485 8.60605C4.48485 8.73993 4.37631 8.84847 4.24242 8.84847C4.10854 8.84847 4 8.73993 4 8.60605V3.99999Z" fill="white"/>
</svg>
