<svg width="16" height="16" viewBox="0 0 16 16" fill="none" xmlns="http://www.w3.org/2000/svg">
<path fill-rule="evenodd" clip-rule="evenodd" d="M2.66602 2.66665C2.4892 2.66665 2.31964 2.73688 2.19461 2.86191C2.06959 2.98693 1.99935 3.1565 1.99935 3.33331V12.6666C1.99935 12.8435 2.06959 13.013 2.19461 13.1381C2.31964 13.2631 2.4892 13.3333 2.66602 13.3333H13.3327C13.5095 13.3333 13.6791 13.2631 13.8041 13.1381C13.9291 13.013 13.9993 12.8435 13.9993 12.6666V8.66665C13.9993 8.29846 14.2978 7.99998 14.666 7.99998C15.0342 7.99998 15.3327 8.29846 15.3327 8.66665V12.6666C15.3327 13.1971 15.122 13.7058 14.7469 14.0809C14.3718 14.4559 13.8631 14.6666 13.3327 14.6666H2.66602C2.13558 14.6666 1.62687 14.4559 1.2518 14.0809C0.876729 13.7058 0.666016 13.1971 0.666016 12.6666V3.33331C0.666016 2.80288 0.876729 2.29417 1.2518 1.9191C1.62687 1.54403 2.13558 1.33331 2.66602 1.33331H5.99935C6.22225 1.33331 6.43041 1.44471 6.55405 1.63018L7.88738 3.63018C8.09162 3.93653 8.00883 4.35045 7.70248 4.55468C7.39613 4.75891 6.98222 4.67613 6.77798 4.36978L5.64256 2.66665H2.66602Z" fill="#637381"/>
<path fill-rule="evenodd" clip-rule="evenodd" d="M9.33398 1.99998C9.33398 1.63179 9.63246 1.33331 10.0007 1.33331H14.0007C14.3688 1.33331 14.6673 1.63179 14.6673 1.99998V5.99998C14.6673 6.36817 14.3688 6.66665 14.0007 6.66665C13.6325 6.66665 13.334 6.36817 13.334 5.99998V2.66665H10.0007C9.63246 2.66665 9.33398 2.36817 9.33398 1.99998Z" fill="#637381"/>
<path fill-rule="evenodd" clip-rule="evenodd" d="M14.4714 1.52858C14.7318 1.78892 14.7318 2.21103 14.4714 2.47138L7.13807 9.80472C6.87772 10.0651 6.45561 10.0651 6.19526 9.80472C5.93491 9.54437 5.93491 9.12226 6.19526 8.86191L13.5286 1.52858C13.7889 1.26823 14.2111 1.26823 14.4714 1.52858Z" fill="#637381"/>
</svg>
