<svg width="14" height="16" viewBox="0 0 14 16" fill="none" xmlns="http://www.w3.org/2000/svg">
<path opacity="0.1" fill-rule="evenodd" clip-rule="evenodd" d="M7.00013 16.0002C9.00844 16.0002 10.6365 15.5118 10.6365 14.9093C10.6365 14.3068 9.00844 13.8184 7.00013 13.8184C4.99183 13.8184 3.36377 14.3068 3.36377 14.9093C3.36377 15.5118 4.99183 16.0002 7.00013 16.0002Z" fill="#212529"/>
<path d="M6.99982 14.9092L6.89073 15.0547L6.99982 15.1365L7.10891 15.0547L6.99982 14.9092ZM6.99982 14.9092C7.10891 15.0547 7.10897 15.0546 7.10905 15.0546L7.10932 15.0544L7.11025 15.0537L7.11368 15.0511L7.12672 15.0412C7.13811 15.0325 7.15483 15.0197 7.17654 15.0029C7.21995 14.9692 7.28329 14.9196 7.36371 14.8549C7.52454 14.7257 7.75378 14.5366 8.02864 14.2961C8.5781 13.8153 9.31117 13.1281 10.0448 12.3027C11.5035 10.6617 12.9998 8.43559 12.9998 6.18195C12.9998 2.86824 10.3135 0.181951 6.99982 0.181951C3.68611 0.181951 0.999822 2.86824 0.999822 6.18195C0.999822 8.43559 2.4961 10.6617 3.95484 12.3027C4.68847 13.1281 5.42154 13.8153 5.971 14.2961C6.24586 14.5366 6.4751 14.7257 6.63593 14.8549C6.71636 14.9196 6.7797 14.9692 6.8231 15.0029C6.84481 15.0197 6.86154 15.0325 6.87292 15.0412L6.88596 15.0511L6.8894 15.0537L6.89033 15.0544L6.8906 15.0546C6.89068 15.0546 6.89073 15.0547 6.99982 14.9092Z" fill="#FA6494" stroke="white" stroke-width="0.363636"/>
<path d="M4.81836 3.99999C4.81836 3.93569 4.8439 3.87403 4.88936 3.82857C4.94259 3.77533 5.03836 3.71149 5.18287 3.65369C5.40174 3.56614 5.68226 3.51514 6.03048 3.51514C6.33349 3.51514 6.55147 3.56723 6.92976 3.71197L7.16316 3.80384C7.53979 3.95189 7.72267 3.99999 7.96987 3.99999C8.25802 3.99999 8.47749 3.96008 8.63742 3.89611C8.72017 3.86301 8.76078 3.83594 8.76815 3.82857L8.78866 3.81011C8.94308 3.68546 9.182 3.7934 9.182 3.99999V6.90908C9.182 6.97337 9.15646 7.03503 9.11099 7.0805C9.05776 7.13373 8.962 7.19757 8.81748 7.25537C8.59862 7.34292 8.31809 7.39392 7.96987 7.39392C7.66687 7.39392 7.44888 7.34183 7.07059 7.19709L6.83719 7.10522C6.46057 6.95717 6.27768 6.90908 6.03048 6.90908C5.74233 6.90908 5.52286 6.94898 5.36294 7.01295C5.33969 7.02225 5.31977 7.03107 5.30298 7.03911L5.30321 8.60605C5.30321 8.73993 5.19467 8.84847 5.06078 8.84847C4.9269 8.84847 4.81836 8.73993 4.81836 8.60605V3.99999Z" fill="white"/>
</svg>
