<svg width="13" height="17" viewBox="0 0 13 17" fill="none" xmlns="http://www.w3.org/2000/svg">
<path opacity="0.1" fill-rule="evenodd" clip-rule="evenodd" d="M6.00019 16.4966C8.07082 16.4966 9.74939 15.993 9.74939 15.3718C9.74939 14.7506 8.07082 14.2471 6.00019 14.2471C3.92955 14.2471 2.25098 14.7506 2.25098 15.3718C2.25098 15.993 3.92955 16.4966 6.00019 16.4966Z" fill="#212529"/>
<path d="M6.37373 15.3718L6.26126 15.5218L6.37373 15.6062L6.48621 15.5218L6.37373 15.3718ZM6.37373 15.3718C6.48621 15.5218 6.48627 15.5218 6.48635 15.5217L6.48662 15.5215L6.48759 15.5208L6.49113 15.5181L6.50457 15.5079C6.51631 15.4989 6.53356 15.4857 6.55593 15.4684C6.60069 15.4337 6.666 15.3825 6.74892 15.3159C6.91473 15.1826 7.15109 14.9876 7.43448 14.7396C8.00099 14.2439 8.75681 13.5354 9.51321 12.6845C11.0172 10.9925 12.5599 8.69731 12.5599 6.37373C12.5599 2.95719 9.79027 0.18754 6.37373 0.18754C2.95719 0.18754 0.18754 2.95719 0.18754 6.37373C0.18754 8.69731 1.73025 10.9925 3.23426 12.6845C3.99066 13.5354 4.74648 14.2439 5.31299 14.7396C5.59638 14.9876 5.83273 15.1826 5.99855 15.3159C6.08147 15.3825 6.14677 15.4337 6.19153 15.4684C6.21391 15.4857 6.23116 15.4989 6.2429 15.5079L6.25634 15.5181L6.25988 15.5208L6.26084 15.5215L6.26112 15.5217C6.2612 15.5218 6.26126 15.5218 6.37373 15.3718Z" fill="#373771" stroke="white" stroke-width="0.374921"/>
</svg>
