<svg width="13" height="17" viewBox="0 0 13 17" fill="none" xmlns="http://www.w3.org/2000/svg">
<path d="M6.37373 15.6149L6.26126 15.7649L6.37373 15.8493L6.48621 15.7649L6.37373 15.6149ZM6.37373 15.6149C6.48621 15.7649 6.48627 15.7649 6.48635 15.7648L6.48662 15.7646L6.48759 15.7639L6.49113 15.7612L6.50457 15.751C6.51631 15.742 6.53356 15.7288 6.55593 15.7115C6.60069 15.6768 6.666 15.6256 6.74892 15.559C6.91473 15.4257 7.15109 15.2307 7.43448 14.9827C8.00099 14.487 8.75681 13.7785 9.51321 12.9276C11.0172 11.2356 12.5599 8.94041 12.5599 6.61684C12.5599 3.2003 9.79027 0.430643 6.37373 0.430643C2.95719 0.430643 0.18754 3.2003 0.18754 6.61684C0.18754 8.94041 1.73025 11.2356 3.23426 12.9276C3.99066 13.7785 4.74648 14.487 5.31299 14.9827C5.59638 15.2307 5.83273 15.4257 5.99855 15.559C6.08147 15.6256 6.14677 15.6768 6.19153 15.7115C6.21391 15.7288 6.23116 15.742 6.2429 15.751L6.25634 15.7612L6.25988 15.7639L6.26084 15.7646L6.26112 15.7648C6.2612 15.7649 6.26126 15.7649 6.37373 15.6149Z" fill="#9E008F" stroke="white" stroke-width="0.374921"/>
</svg>
