<svg width="16" height="16" viewBox="0 0 24 24" fill="none" xmlns="http://www.w3.org/2000/svg">
<path fill-rule="evenodd" clip-rule="evenodd" d="M4.45272 9.3336C4.26848 9.85425 3.69705 10.127 3.1764 9.94272C2.65576 9.75848 2.38304 9.18706 2.56728 8.66641C3.71271 5.42953 6.43869 3.00665 9.7876 2.24892C13.1365 1.49119 16.64 2.50457 19.0448 4.91125L22 7.68814V4.00001C22 3.44772 22.4477 3.00001 23 3.00001C23.5523 3.00001 24 3.44772 24 4.00001V9.99813L24 10C24 10.2318 23.92 10.4641 23.7585 10.6518C23.7466 10.6655 23.7344 10.679 23.7219 10.692C23.6268 10.7913 23.516 10.8667 23.3971 10.9181C23.2754 10.9708 23.1411 11 23 11H22.9973H17C16.4477 11 16 10.5523 16 10C16 9.44772 16.4477 9.00001 17 9.00001H20.4757L17.6527 6.34693C15.7109 4.40413 12.9081 3.59342 10.229 4.19961C7.54984 4.8058 5.36906 6.7441 4.45272 9.3336ZM0 14.0023V20C0 20.5523 0.447715 21 1 21C1.55228 21 2 20.5523 2 20V16.3119L4.95522 19.0888C7.36 21.4954 10.8635 22.5088 14.2124 21.7511C17.5613 20.9934 20.2873 18.5705 21.4327 15.3336C21.617 14.813 21.3442 14.2415 20.8236 14.0573C20.3029 13.873 19.7315 14.1458 19.5473 14.6664C18.6309 17.2559 16.4502 19.1942 13.771 19.8004C11.0919 20.4066 8.28911 19.5959 6.34728 17.6531L3.52427 15H7C7.55228 15 8 14.5523 8 14C8 13.4477 7.55228 13 7 13H1.00266C0.998431 13 0.994207 13 0.989984 13.0001C0.857804 13.0014 0.72599 13.0288 0.602896 13.082" fill="#637381"/>
</svg>
