<svg width="16" height="16" viewBox="0 0 16 16" fill="none" xmlns="http://www.w3.org/2000/svg">
<path fill-rule="evenodd" clip-rule="evenodd" d="M15.3327 7.99996C15.3327 12.05 12.0494 15.3333 7.99935 15.3333C3.94926 15.3333 0.666016 12.05 0.666016 7.99996C0.666016 3.94987 3.94926 0.666626 7.99935 0.666626C12.0494 0.666626 15.3327 3.94987 15.3327 7.99996ZM7.99935 5.33329C7.50481 5.33329 7.04171 5.46791 6.6447 5.70251L10.2968 9.3546C10.5314 8.95759 10.666 8.4945 10.666 7.99996C10.666 6.5272 9.47211 5.33329 7.99935 5.33329ZM5.33268 7.99996C5.33268 7.50542 5.4673 7.04232 5.7019 6.64531L9.35399 10.2974C8.95699 10.532 8.49389 10.6666 7.99935 10.6666C6.52659 10.6666 5.33268 9.47272 5.33268 7.99996ZM3.99935 7.99996C3.99935 5.79082 5.79021 3.99996 7.99935 3.99996C10.2085 3.99996 11.9993 5.79082 11.9993 7.99996C11.9993 10.2091 10.2085 12 7.99935 12C5.79021 12 3.99935 10.2091 3.99935 7.99996Z" fill="#637381"/>
</svg>
