<svg width="16" height="14" viewBox="0 0 16 14" fill="none" xmlns="http://www.w3.org/2000/svg">
<path fill-rule="evenodd" clip-rule="evenodd" d="M2.1176 5.6285C2.26617 5.68107 2.42094 5.67784 2.55901 5.62972L2.1176 5.6285ZM2.70461 5.55819L2.1176 5.6285C1.7705 5.50567 1.5887 5.12472 1.71152 4.77763C2.47514 2.61971 4.29246 1.00445 6.52507 0.499299C8.75768 -0.00585625 11.0933 0.669734 12.6965 2.27419L14.6667 4.12545L12.94 4.33227L11.7685 3.23131C10.4739 1.93611 8.6054 1.39564 6.81931 1.79976C5.03323 2.20388 3.57937 3.49609 2.96848 5.22242C2.91772 5.36584 2.8229 5.48104 2.70461 5.55819ZM10.6668 5.65202L2.55901 5.62972C2.61023 5.61187 2.65915 5.58784 2.70461 5.55819L12.94 4.33227L13.3226 4.69192L13.6505 5.00002H11.3333C10.97 5.00002 10.6746 5.2906 10.6668 5.65202ZM10.6668 5.65202L16 5.66669C16 5.6811 15.9995 5.69553 15.9986 5.70993C15.9941 5.77942 15.9788 5.84841 15.9526 5.91416C15.9263 5.97985 15.8892 6.0423 15.841 6.09878C15.8316 6.10983 15.8219 6.12057 15.8118 6.13097C15.749 6.19569 15.6762 6.24499 15.5981 6.27872C15.5169 6.31387 15.4274 6.33336 15.3333 6.33336H15.3315H11.3333C10.9651 6.33336 10.6667 6.03488 10.6667 5.66669C10.6667 5.66179 10.6667 5.6569 10.6668 5.65202ZM14.6667 4.12545L16 5.66568V1.66669C16 1.2985 15.7015 1.00002 15.3333 1.00002C14.9651 1.00002 14.6667 1.2985 14.6667 1.66669V4.12545ZM0 8.33488V12.3334C0 12.7015 0.298477 13 0.666667 13C1.03486 13 1.33333 12.7015 1.33333 12.3334V9.8746L3.30348 11.7259C4.90667 13.3303 7.24232 14.0059 9.47493 13.5007C11.7075 12.9956 13.5249 11.3803 14.2885 9.22242C14.4113 8.87532 14.2295 8.49437 13.8824 8.37155C13.5353 8.24872 13.1543 8.43053 13.0315 8.77763C12.4206 10.504 10.9668 11.7962 9.18069 12.2003C7.3946 12.6044 5.52608 12.0639 4.23152 10.7687L2.34951 9.00002H4.66667C5.03486 9.00002 5.33333 8.70155 5.33333 8.33336C5.33333 7.96517 5.03486 7.66669 4.66667 7.66669H0.668711C0.664451 7.66668 0.66019 7.66671 0.65593 7.66678C0.569371 7.66818 0.483133 7.68633 0.40249 7.72108" fill="#637381"/>
</svg>
