<svg width="16" height="16" viewBox="0 0 16 16" fill="none" xmlns="http://www.w3.org/2000/svg">
<path fill-rule="evenodd" clip-rule="evenodd" d="M12.1289 2.92767L3.14009 6.07376L7.18506 7.87153L12.1289 2.92767ZM14.4319 0.708977L1.11247 5.37079C0.542576 5.57025 0.510193 6.36401 1.06194 6.60923L6.82763 9.17176L8.05683 11.9375C8.20636 12.2739 8.60034 12.4254 8.93679 12.2759C9.27325 12.1264 9.42478 11.7324 9.27524 11.3959L8.12787 8.81434L13.0717 3.87048L9.37013 14.4465C9.2485 14.794 9.43161 15.1743 9.77913 15.2959C10.1267 15.4176 10.507 15.2344 10.6286 14.8869L15.2904 1.56762C15.2976 1.54833 15.3039 1.52878 15.3093 1.50903C15.3766 1.26654 15.3009 1.03242 15.1479 0.872594C15.1444 0.869018 15.141 0.865471 15.1374 0.861953C15.1339 0.858435 15.1304 0.854965 15.1268 0.851542C14.967 0.698534 14.7329 0.62276 14.4904 0.690114C14.4707 0.69548 14.4512 0.701767 14.4319 0.708977Z" fill="#637381"/>
</svg>
